<svg width="216" height="216" viewBox="0 0 216 216" fill="none" xmlns="http://www.w3.org/2000/svg">
<path d="M177.189 42.5397H208.956C209.867 42.5394 210.74 42.1776 211.384 41.5338C212.027 40.89 212.389 40.017 212.39 39.1064V7.34025C212.39 6.42957 212.028 5.55626 211.384 4.91226C210.74 4.26826 209.867 3.90628 208.956 3.90588H177.189C176.279 3.90629 175.405 4.26827 174.761 4.91227C174.118 5.55626 173.756 6.42958 173.755 7.34025V39.1065C173.756 40.017 174.118 40.89 174.762 41.5338C175.406 42.1776 176.279 42.5394 177.189 42.5397ZM178.503 18.222C178.863 17.9708 179.297 17.8473 179.736 17.8712C180.174 17.895 180.592 18.0647 180.923 18.3534L189.948 26.1033L205.147 11.1677C205.5 10.8187 205.972 10.6155 206.468 10.5984C206.964 10.5814 207.448 10.7519 207.825 11.0759C208.201 11.3999 208.441 11.8537 208.498 12.3469C208.554 12.8401 208.423 13.3365 208.131 13.7374L193.213 34.2089L193.101 34.3403C192.53 35.1233 191.673 35.648 190.716 35.7994C189.759 35.9507 188.781 35.7163 187.997 35.1476C187.664 34.9019 187.372 34.6039 187.134 34.2652L177.996 20.9805C177.698 20.5473 177.584 20.0136 177.679 19.4966C177.774 18.9795 178.07 18.5212 178.503 18.222ZM208.957 173.449H177.193C176.742 173.449 176.294 173.538 175.877 173.711C175.46 173.883 175.081 174.137 174.762 174.456C174.443 174.775 174.189 175.154 174.017 175.571C173.844 175.988 173.755 176.436 173.755 176.887V208.651C173.755 209.102 173.844 209.55 174.017 209.967C174.189 210.384 174.443 210.763 174.762 211.082C175.081 211.402 175.46 211.655 175.877 211.827C176.294 212 176.742 212.089 177.193 212.089H208.957C209.409 212.089 209.856 212 210.273 211.827C210.69 211.655 211.069 211.402 211.388 211.082C211.708 210.763 211.961 210.384 212.134 209.967C212.306 209.55 212.395 209.102 212.395 208.651V176.887C212.395 176.435 212.306 175.988 212.133 175.571C211.961 175.154 211.708 174.775 211.388 174.456C211.069 174.137 210.69 173.883 210.273 173.711C209.856 173.538 209.409 173.449 208.957 173.449ZM205.224 201.518C205.675 201.969 205.928 202.58 205.928 203.218C205.928 203.856 205.675 204.467 205.224 204.918C204.773 205.369 204.162 205.622 203.524 205.622C202.887 205.622 202.275 205.369 201.824 204.918L193.075 196.169L184.326 204.918C184.103 205.141 183.838 205.318 183.546 205.439C183.254 205.56 182.942 205.622 182.626 205.622C182.31 205.622 181.998 205.56 181.706 205.439C181.414 205.318 181.149 205.141 180.926 204.918C180.703 204.695 180.526 204.43 180.405 204.138C180.284 203.846 180.222 203.534 180.222 203.218C180.222 202.902 180.284 202.59 180.405 202.298C180.526 202.006 180.703 201.741 180.926 201.518L189.675 192.769L180.926 184.02C180.703 183.797 180.526 183.532 180.405 183.24C180.284 182.949 180.222 182.636 180.222 182.32C180.222 182.005 180.284 181.692 180.405 181.4C180.526 181.109 180.703 180.844 180.926 180.62C181.149 180.397 181.414 180.22 181.706 180.099C181.998 179.978 182.31 179.916 182.626 179.916C182.942 179.916 183.254 179.978 183.546 180.099C183.838 180.22 184.103 180.397 184.326 180.62L193.075 189.369L201.824 180.62C202.275 180.169 202.887 179.916 203.524 179.916C204.162 179.916 204.773 180.169 205.224 180.62C205.675 181.071 205.928 181.683 205.928 182.32C205.928 182.958 205.675 183.569 205.224 184.02L196.475 192.769L205.224 201.518ZM38.8062 173.46H7.03926C6.12867 173.461 5.25549 173.823 4.61161 174.467C3.96773 175.11 3.60584 175.984 3.60547 176.894V208.66C3.60584 209.571 3.96773 210.444 4.61161 211.088C5.25549 211.732 6.12867 212.094 7.03926 212.094H38.8062C39.7168 212.094 40.5899 211.732 41.2338 211.088C41.8777 210.444 42.2396 209.571 42.24 208.66V176.894C42.2396 175.984 41.8777 175.11 41.2338 174.467C40.5899 173.823 39.7167 173.461 38.8062 173.46ZM37.9806 183.292L23.0634 203.763L22.9508 203.894C22.3806 204.677 21.5229 205.202 20.566 205.354C19.6091 205.505 18.6312 205.27 17.8472 204.701C17.5137 204.456 17.2222 204.158 16.984 203.819L7.84619 190.534C7.57242 190.138 7.45267 189.655 7.50934 189.176C7.56601 188.697 7.79522 188.255 8.15407 187.933C8.51292 187.611 8.97681 187.431 9.45892 187.426C9.94104 187.422 10.4083 187.593 10.7733 187.908L19.7986 195.658L34.9972 180.722C35.3504 180.373 35.822 180.17 36.3182 180.153C36.8144 180.136 37.2988 180.306 37.675 180.63C38.0512 180.954 38.2915 181.408 38.3481 181.901C38.4048 182.395 38.2735 182.891 37.9806 183.292ZM38.8072 3.90588H7.04313C6.59164 3.90572 6.14455 3.99452 5.72739 4.16722C5.31024 4.33992 4.93121 4.59313 4.61196 4.91238C4.29272 5.23163 4.03951 5.61066 3.86681 6.02781C3.69411 6.44496 3.6053 6.89205 3.60547 7.34354V39.1075C3.60524 39.559 3.69401 40.0062 3.86668 40.4233C4.03936 40.8405 4.29256 41.2196 4.61182 41.5389C4.93108 41.8581 5.31014 42.1113 5.72732 42.284C6.14449 42.4567 6.59162 42.5455 7.04313 42.5453H38.8072C39.2587 42.5455 39.7059 42.4567 40.123 42.284C40.5402 42.1114 40.9193 41.8581 41.2385 41.5389C41.5578 41.2196 41.811 40.8406 41.9837 40.4234C42.1563 40.0062 42.2451 39.5591 42.2449 39.1076V7.34354C42.2451 6.89205 42.1563 6.44496 41.9836 6.02781C41.8109 5.61066 41.5577 5.23163 41.2384 4.91238C40.9192 4.59313 40.5401 4.33992 40.123 4.16722C39.7058 3.99452 39.2587 3.90572 38.8072 3.90588ZM35.0742 31.9746C35.5251 32.4255 35.7784 33.037 35.7784 33.6746C35.7784 34.3122 35.5251 34.9237 35.0743 35.3746C34.6234 35.8254 34.0119 36.0787 33.3743 36.0787C32.7367 36.0787 32.1252 35.8254 31.6743 35.3746L22.9252 26.6256L14.176 35.3746C13.9528 35.5978 13.6877 35.7749 13.396 35.8957C13.1044 36.0165 12.7917 36.0787 12.476 36.0787C12.1603 36.0787 11.8477 36.0165 11.556 35.8957C11.2643 35.7749 10.9993 35.5978 10.7761 35.3746C10.3252 34.9237 10.0719 34.3122 10.0719 33.6746C10.0719 33.3589 10.1341 33.0462 10.2549 32.7546C10.3757 32.4629 10.5528 32.1979 10.7761 31.9746L19.5252 23.2257L10.7761 14.4768C10.3252 14.0259 10.0719 13.4144 10.0719 12.7768C10.0719 12.1392 10.3252 11.5277 10.776 11.0768C11.2269 10.6259 11.8384 10.3726 12.476 10.3726C13.1136 10.3726 13.7251 10.6259 14.176 11.0768L22.9252 19.8258L31.6743 11.0768C32.1252 10.6259 32.7367 10.3726 33.3743 10.3726C34.0119 10.3726 34.6234 10.6259 35.0743 11.0768C35.5251 11.5277 35.7784 12.1392 35.7784 12.7768C35.7784 13.4144 35.5251 14.0259 35.0743 14.4767L26.3252 23.2257L35.0742 31.9746Z" fill="#79B3E0"/>
<path d="M81.812 15.2736H55.1934V31.1647H81.812V15.2736Z" fill="#395062"/>
<path d="M121.345 15.2736H94.7266V31.1647H121.345V15.2736Z" fill="#395062"/>
<path d="M160.879 15.2736H134.261V31.1647H160.879V15.2736Z" fill="#395062"/>
<path d="M81.812 184.823H55.1934V200.715H81.812V184.823Z" fill="#395062"/>
<path d="M121.345 184.823H94.7266V200.715H121.345V184.823Z" fill="#395062"/>
<path d="M160.879 184.823H134.261V200.715H160.879V184.823Z" fill="#395062"/>
<path d="M201.092 55.1526H185.201V81.7712H201.092V55.1526Z" fill="#395062"/>
<path d="M201.092 94.6857H185.201V121.304H201.092V94.6857Z" fill="#395062"/>
<path d="M201.092 134.219H185.201V160.837H201.092V134.219Z" fill="#395062"/>
<path d="M30.8707 55.1526H14.9795V81.7712H30.8707V55.1526Z" fill="#395062"/>
<path d="M30.8707 94.6857H14.9795V121.304H30.8707V94.6857Z" fill="#395062"/>
<path d="M30.8707 134.219H14.9795V160.837H30.8707V134.219Z" fill="#395062"/>
<path d="M170.245 48.7528L135.81 46.0346C135.396 46.001 134.98 46.0773 134.605 46.2559C134.229 46.4344 133.908 46.7088 133.672 47.0515C133.437 47.3941 133.296 47.7927 133.264 48.2072C133.232 48.6217 133.309 49.0373 133.489 49.4121L138.845 60.6548C120.711 68.5933 104.124 79.6771 89.8505 93.3939C71.1777 111.375 55.7621 134.607 43.9934 162.502C43.7181 163.154 43.574 163.853 43.5694 164.561C43.5649 165.268 43.6998 165.97 43.9666 166.625C44.2333 167.28 44.6267 167.876 45.1241 168.379C45.6215 168.882 46.2133 169.282 46.8655 169.556C47.5176 169.83 48.2175 169.973 48.9249 169.976C49.6323 169.98 50.3334 169.843 50.9881 169.576C51.6429 169.308 52.2383 168.913 52.7404 168.415C53.2425 167.916 53.6414 167.324 53.9143 166.671C73.7196 119.666 103.181 87.9067 143.46 70.3366L148.345 80.5903C148.523 80.9663 148.798 81.2886 149.14 81.5248C149.483 81.7609 149.882 81.9025 150.297 81.9353C150.712 81.968 151.128 81.8908 151.503 81.7113C151.879 81.5319 152.2 81.2566 152.436 80.9132L172.008 52.46C172.243 52.1173 172.385 51.7187 172.418 51.3041C172.451 50.8895 172.374 50.4736 172.196 50.098C172.017 49.7224 171.743 49.4004 171.4 49.1643C171.058 48.9281 170.66 48.7862 170.245 48.7528Z" fill="#79B3E0"/>
</svg>
