<svg width="99" height="99" viewBox="0 0 99 99" fill="none" xmlns="http://www.w3.org/2000/svg">
<g clip-path="url(#clip0_1124_239)">
<path d="M27.9413 98.3392H70.6337C73.06 98.3392 75.387 97.3754 77.1026 95.6597C78.8183 93.9441 79.7821 91.6171 79.7821 89.1908V9.90496C79.7821 7.47866 78.8183 5.15174 77.1026 3.43609C75.387 1.72044 73.06 0.756592 70.6337 0.756592L27.9413 0.756592C25.515 0.756592 23.1881 1.72044 21.4725 3.43609C19.7568 5.15174 18.793 7.47866 18.793 9.90496V89.1908C18.793 91.6171 19.7568 93.9441 21.4725 95.6597C23.1881 97.3754 25.515 98.3392 27.9413 98.3392ZM24.8919 9.90496C24.8919 9.0962 25.2132 8.32055 25.785 7.74867C26.3569 7.17679 27.1326 6.8555 27.9413 6.8555H70.6337C71.4425 6.8555 72.2181 7.17679 72.79 7.74867C73.3619 8.32055 73.6832 9.0962 73.6832 9.90496V89.1908C73.6832 89.9996 73.3619 90.7752 72.79 91.3471C72.2181 91.919 71.4425 92.2403 70.6337 92.2403H27.9413C27.1326 92.2403 26.3569 91.919 25.785 91.3471C25.2132 90.7752 24.8919 89.9996 24.8919 89.1908V9.90496Z" fill="#DE834D"/>
<path d="M56.9119 84.6165C56.9119 83.1087 56.4648 81.6348 55.6271 80.3811C54.7894 79.1274 53.5988 78.1502 52.2057 77.5732C50.8127 76.9962 49.2798 76.8452 47.801 77.1394C46.3222 77.4335 44.9638 78.1596 43.8976 79.2258C42.8314 80.292 42.1053 81.6504 41.8111 83.1292C41.517 84.6081 41.668 86.1409 42.245 87.534C42.822 88.927 43.7991 90.1177 45.0528 90.9554C46.3065 91.7931 47.7805 92.2402 49.2883 92.2402C51.3102 92.2402 53.2493 91.437 54.679 90.0073C56.1087 88.5776 56.9119 86.6385 56.9119 84.6165ZM49.2883 86.1413C48.9867 86.1413 48.6919 86.0518 48.4412 85.8843C48.1905 85.7168 47.995 85.4786 47.8796 85.2C47.7642 84.9214 47.734 84.6148 47.7929 84.3191C47.8517 84.0233 47.9969 83.7516 48.2102 83.5384C48.4234 83.3252 48.6951 83.1799 48.9908 83.1211C49.2866 83.0623 49.5932 83.0925 49.8718 83.2079C50.1504 83.3233 50.3885 83.5187 50.5561 83.7694C50.7236 84.0202 50.813 84.315 50.813 84.6165C50.813 85.0209 50.6524 85.4087 50.3664 85.6947C50.0805 85.9806 49.6927 86.1413 49.2883 86.1413ZM37.0905 8.38013H61.4861V14.479H37.0905V8.38013ZM37.0905 68.6069H61.4861C62.2949 68.6069 63.0705 68.2856 63.6424 67.7137C64.2143 67.1418 64.5356 66.3662 64.5356 65.5574V47.2607C64.5356 46.4519 64.2143 45.6763 63.6424 45.1044C63.0705 44.5325 62.2949 44.2112 61.4861 44.2112H59.9614V41.1618C59.9614 38.3311 58.8369 35.6164 56.8353 33.6148C54.8337 31.6132 52.119 30.4887 49.2883 30.4887C46.4576 30.4887 43.7429 31.6132 41.7413 33.6148C39.7397 35.6164 38.6152 38.3311 38.6152 41.1618V44.2112H37.0905C36.2817 44.2112 35.5061 44.5325 34.9342 45.1044C34.3623 45.6763 34.041 46.4519 34.041 47.2607V65.5574C34.041 66.3662 34.3623 67.1418 34.9342 67.7137C35.5061 68.2856 36.2817 68.6069 37.0905 68.6069ZM58.4367 62.508H40.1399V50.3102H58.4367V62.508ZM44.7141 41.1618C44.7141 39.9486 45.196 38.7852 46.0539 37.9273C46.9117 37.0695 48.0751 36.5876 49.2883 36.5876C50.5014 36.5876 51.6649 37.0695 52.5227 37.9273C53.3806 38.7852 53.8625 39.9486 53.8625 41.1618V44.2112H44.7141V41.1618Z" fill="#DE834D"/>
<path d="M46.2383 54.8845H52.3372V60.9834H46.2383V54.8845Z" fill="#F89F65"/>
</g>
<defs>
<clipPath id="clip0_1124_239">
<rect width="97.5826" height="97.5826" fill="white" transform="translate(0.496094 0.756592)"/>
</clipPath>
</defs>
</svg>
