<svg id="Layer_1" data-name="Layer 1" xmlns="http://www.w3.org/2000/svg" viewBox="0 0 384.31 185.27"><defs><style>.cls-1{fill:#2d3243;}.cls-2{fill:#fff;}</style></defs><rect class="cls-1" x="-192.21" y="-288.71" width="800" height="800"/><path class="cls-2" d="M135.46,10.84l13.52,0c23.8-.06,104.51.12,105.33.12.36.83,38.35,79.41,38.85,80.35,1.22-4.4,21.82-79.64,22-80.3.72,0,55.93-.05,56.88-.05-.33.81-46,167.65-46.17,168.15l-50.82,0c-.32-.67-40.48-82.9-40.76-83-.75,2.74-22.76,81.89-23.07,82.56-.56.16-71.05.39-105.73.39H103.9c5.71-1.18,11.55-1.49,17.28-2.6,12.78-2.49,25.12-6.23,36.39-12.76,20.32-11.77,35.05-28.28,43.29-50.16a85.77,85.77,0,0,0,3.43-51.39C199.06,40.58,185.41,26,164.41,17.9a109.62,109.62,0,0,0-26.86-6.12Z"/><path class="cls-2" d="M115.3,60.27A50.9,50.9,0,0,1,129,62c12.32,3.4,19,11.89,19.18,24.48.32,18.48-11.19,34-29.53,40-10.43,3.39-21.16,4-32,3.77C74.72,130,62.84,130,51,129.89c-2,0-3.9-.08-5.85,0s-2.76-.88-2.71-2.7c0-.7,0-1.4,0-2.09-.1-2.09.78-3,3-2.92,11,.18,22,.25,33,.35,1.38,0,3.13.43,3.65-1.3a7.57,7.57,0,0,0-.2-5.85c-.58-1.09-1.77-1-2.85-1q-11.7-.06-23.41-.16c-3.06,0-3.2-.36-3.3-4.48-.07-2.43.9-3.19,3.31-3.09,5.41.21,10.82.24,16.23.28,2.69,0,3.16-.6,3.18-3.87,0-3.52-.39-4.12-3.14-4.18-4.26-.08-8.52-.23-12.77-.12-1.82,0-2.35-.66-2.33-2.21a4.51,4.51,0,0,0,0-.52c-.23-4.79,0-5,4.83-5,8.34.12,16.67.14,25,.33,2.38.06,3.23-.93,3.11-3.09,0-.44,0-.88,0-1.31,0-3.25-.39-3.63-3.64-3.68l-30.34-.48c-3.15,0-3.37-.53-3.41-4.66,0-2.54,1.16-3.11,3.46-2.93,2.65.21,5.32.14,8,.24,2,.08,3-.83,2.95-2.79,0-.87,0-1.74,0-2.61,0-1.78-.86-2.77-2.76-2.75-1.25,0-2.49,0-3.73-.06-2.91-.07-3-.28-3.07-4.11,0-2.2.27-3.7,3.11-3.65C67.45,59.63,104.14,60.28,115.3,60.27Z"/><path class="cls-2" d="M48.72,98.44c-4.17,0-4.35-.2-4.3-4,0-3.14.27-3.29,4.74-3.24,3.57,0,3.78.26,3.74,4C52.86,98.3,52.64,98.48,48.72,98.44Z"/><path class="cls-2" d="M53.48,63.7c.14,1.67.07,3.37-2.79,3.18s-3.08-.41-3.13-3.84c0-2,.08-3.68,2.86-3.55S53.48,60,53.48,63.7Z"/><path class="cls-2" d="M135.46,10.84l3.23,1.06-1-.1c-2.88-.29-4-.38-5.65-.55l-3.72-.41Z"/></svg>