<svg width="52" height="52" viewBox="0 0 52 52" fill="none" xmlns="http://www.w3.org/2000/svg">
<path d="M25.8597 0C40.1192 0 51.7197 11.6005 51.7197 25.86C51.7197 40.1195 40.1192 51.72 25.8597 51.72C11.6002 51.72 -0.000274658 40.1195 -0.000274658 25.86C-0.000274658 11.6005 11.6002 0 25.8597 0ZM14.7602 31.0766C14.6172 29.3558 14.5387 27.608 14.5387 25.86C14.5387 24.112 14.6172 22.3642 14.7602 20.6434C8.39095 22.0302 5.00489 24.4086 5.00489 25.86C5.00489 27.3114 8.39095 29.6898 14.7602 31.0766ZM25.8597 46.7148C27.3111 46.7148 29.6896 43.3288 31.0763 36.9595C29.3556 37.1026 27.6077 37.1811 25.8597 37.1811C24.1117 37.1811 22.3639 37.1026 20.6432 36.9595C22.0299 43.3288 24.4083 46.7148 25.8597 46.7148ZM25.8597 32.1759C28.029 32.1759 30.0215 32.0589 31.8687 31.869C32.0587 30.0218 32.1756 28.0293 32.1756 25.86C32.1756 23.6907 32.0586 21.6982 31.8687 19.851C30.0215 19.6611 28.029 19.5441 25.8597 19.5441C23.6904 19.5441 21.6979 19.6611 19.8507 19.851C19.6608 21.6982 19.5438 23.6907 19.5438 25.86C19.5438 28.0293 19.6608 30.0218 19.8507 31.869C21.6979 32.0589 23.6904 32.1759 25.8597 32.1759ZM46.7146 25.86C46.7146 24.4086 43.3285 22.0302 36.9592 20.6434C37.1023 22.3642 37.1808 24.112 37.1808 25.86C37.1808 27.608 37.1023 29.3558 36.9592 31.0766C43.3285 29.6898 46.7146 27.3114 46.7146 25.86ZM25.8597 5.00516C24.4083 5.00516 22.0299 8.39122 20.6432 14.7605C22.3639 14.6174 24.1117 14.5389 25.8597 14.5389C27.6077 14.5389 29.3556 14.6174 31.0763 14.7605C29.6896 8.39122 27.3111 5.00516 25.8597 5.00516ZM6.51646 18.1041C9.0216 16.9199 12.0941 16.0333 15.4369 15.4372C16.033 12.0944 16.9196 9.02187 18.1038 6.51674C12.8377 8.63612 8.63585 12.8379 6.51646 18.1041ZM33.6156 6.51684C34.7998 9.02197 35.6864 12.0945 36.2826 15.4372C39.6252 16.0333 42.6978 16.9197 45.2029 18.104C43.0835 12.8378 38.8817 8.63622 33.6156 6.51684ZM45.2028 33.616C42.6977 34.8003 39.6252 35.6867 36.2826 36.2828C35.6864 39.6255 34.8 42.6979 33.6157 45.2031C38.8817 43.0837 43.0834 38.8819 45.2028 33.616ZM18.1037 45.2032C16.9194 42.698 16.033 39.6255 15.4369 36.2828C12.0942 35.6867 9.02169 34.8001 6.51656 33.6159C8.63595 38.8819 12.8376 43.0838 18.1037 45.2032Z" fill="#DE834D"/>
</svg>
