<svg width="52" height="52" viewBox="0 0 52 52" fill="none" xmlns="http://www.w3.org/2000/svg">
<path d="M7.71264 44.2875C17.8133 54.3882 34.1871 54.3882 44.2878 44.2875C54.3885 34.1868 54.3885 17.813 44.2878 7.71236C34.1871 -2.38833 17.8133 -2.38833 7.71264 7.71236C-2.38598 17.813 -2.38598 34.1868 7.71264 44.2875ZM19.1851 9.91581L23.0333 13.7641C23.803 14.5337 23.9664 15.7234 23.4326 16.673L21.9864 19.2406C21.8128 19.5485 21.7448 19.9048 21.793 20.2549C21.8412 20.6051 22.0029 20.9298 22.2533 21.1793L30.8209 29.7468C31.0706 29.9969 31.3954 30.1582 31.7456 30.206C32.0957 30.2539 32.4519 30.1856 32.7595 30.0117L35.3271 28.5655C35.789 28.3051 36.3235 28.2032 36.8488 28.2753C37.3742 28.3474 37.8614 28.5896 38.2361 28.9648L42.0864 32.8151C42.5413 33.2709 42.7967 33.8885 42.7967 34.5324C42.7967 35.1763 42.5413 35.7938 42.0864 36.2496L40.2637 38.0724C39.2525 39.0811 37.9366 39.7279 36.5203 39.9123C35.104 40.0967 33.6664 39.8085 32.4306 39.0924L32.2568 38.993C24.7032 34.6769 18.3853 28.4923 13.9092 21.0324L13.034 19.5717C12.2901 18.334 11.9816 16.8831 12.1574 15.4498C12.3332 14.0165 12.9834 12.6832 14.0044 11.662L15.7506 9.91581C15.976 9.6901 16.2437 9.51104 16.5383 9.38887C16.833 9.2667 17.1488 9.20382 17.4678 9.20382C17.7868 9.20382 18.1026 9.2667 18.3973 9.38887C18.692 9.51104 18.9597 9.6901 19.1851 9.91581Z" fill="#DE834D"/>
</svg>
