<?xml version="1.0" encoding="utf-8"?>
<!-- Svg Vector Icons : http://www.onlinewebfonts.com/icon -->
<!DOCTYPE svg PUBLIC "-//W3C//DTD SVG 1.1//EN" "http://www.w3.org/Graphics/SVG/1.1/DTD/svg11.dtd">
<svg version="1.1" xmlns="http://www.w3.org/2000/svg" xmlns:xlink="http://www.w3.org/1999/xlink" x="0px" y="0px" viewBox="0 0 256 256" enable-background="new 0 0 256 256" xml:space="preserve">
<metadata> Svg Vector Icons : http://www.onlinewebfonts.com/icon </metadata>
<g><g><g><path fill="#DE834D"  d="M126.2,10.6c-0.4,0.4-0.6,3.9-0.6,12.7v12.1l1.2,0.8c1.1,0.7,1.3,0.7,2.4,0l1.2-0.8V23.2c0-12.9,0-13.2-2.4-13.2C127.3,10,126.5,10.2,126.2,10.6z"/><path fill="#DE834D"  d="M59.9,38.1c-0.5,0.5-0.8,1.2-0.8,1.6c0,0.8,17.3,18.1,18.1,18.1c0.9,0,2.5-1.8,2.5-2.7c0-1.2-16.8-17.8-18-17.8C61.1,37.3,60.4,37.6,59.9,38.1z"/><path fill="#DE834D"  d="M184.8,45.8c-4.7,4.7-8.5,8.8-8.5,9.3c0,0.9,1.6,2.7,2.5,2.7s18.1-17.3,18.1-18.2c0-1-1.5-2.3-2.6-2.3C193.7,37.3,189.8,40.8,184.8,45.8z"/><path fill="#DE834D"  d="M120.6,44.4c-27.8,3.6-50,25.2-54.6,53c-2.9,17.8,3.4,37.4,16.8,52.7c5.6,6.3,6.9,9.6,9.5,23.7c2.6,14.4,3.6,17,6.9,19.3l1.6,1.1l27.4-0.1c26.8-0.1,27.4-0.1,28.7-1.1c3.1-2.3,4.2-5.4,6.9-20.3c2.4-12.9,3.7-16.1,9.1-22.2c6.4-7.3,12-17,14.8-25.4c11.2-34.4-10.9-71.7-47-79.5C135.3,44.2,125.7,43.8,120.6,44.4z M140.2,50.1c22.9,4.8,40.2,22.5,44.8,45.7c0.4,2.1,0.7,6.4,0.7,11.2c0,6.6-0.2,8.6-1.1,12.1c-2.6,10.1-7.2,18.6-14.7,27.5c-6.9,8.1-8.4,11.6-11,26.2c-1.6,9.1-3.1,14.9-3.9,15.8c-0.6,0.6-4.8,0.7-27.2,0.7c-25,0-26.5,0-27-0.9c-0.8-1.5-2.3-8.2-3.8-16.6c-0.8-4.5-1.8-9.3-2.2-10.8c-1.2-4.2-4.3-9.5-7.4-13.2c-11.1-12.8-16.5-24.9-17-39C69,78.6,90.2,53.5,120.6,49.3C125.3,48.6,135.1,49,140.2,50.1z"/><path fill="#DE834D"  d="M156.8,79.7c-0.3,0.2-7.1,13-15,28.3c-7.9,15.4-14.5,28.1-14.7,28.2c-0.1,0.1-5.5-5.2-12.1-11.9c-10.5-10.7-12.1-12.1-13.2-12c-0.9,0.1-1.4,0.5-1.8,1.4c-0.6,1.7-0.6,1.8,14.2,16.6c10.5,10.5,12.7,12.5,13.7,12.4c1.1-0.1,2.9-3.5,16.8-30.3c8.6-16.6,15.6-30.5,15.7-30.9C160.5,80.1,158.2,78.9,156.8,79.7z"/><path fill="#DE834D"  d="M32.5,104.3c-0.9,0.9-0.7,3.2,0.3,3.7c0.6,0.3,5.5,0.5,12.6,0.5c10.7,0,11.7-0.1,12.4-0.9c1-1.1,1.1-2.2,0-3.2c-0.6-0.7-2.5-0.8-12.8-0.8C36.3,103.7,32.9,103.9,32.5,104.3z"/><path fill="#DE834D"  d="M198.1,104.5c-1,1-1,2.2,0.1,3.2c0.8,0.7,2.3,0.8,12.5,0.8c7.1,0,12-0.2,12.5-0.5c1.1-0.6,1.2-2.8,0.3-3.7c-0.4-0.4-3.9-0.6-12.6-0.6C200.6,103.7,198.7,103.8,198.1,104.5z"/><path fill="#DE834D"  d="M67.6,162.9c-4.7,4.7-8.5,8.8-8.5,9.3c0,0.9,1.6,2.7,2.5,2.7c0.9,0,18.1-17.3,18.1-18.2c0-1-1.5-2.3-2.6-2.3C76.5,154.4,72.7,157.9,67.6,162.9z"/><path fill="#DE834D"  d="M177.1,155.3c-0.5,0.5-0.8,1.2-0.8,1.6c0,0.8,17.3,18.1,18.1,18.1c0.9,0,2.5-1.8,2.5-2.7c0-1.2-16.8-17.8-18-17.8C178.3,154.4,177.5,154.8,177.1,155.3z"/><path fill="#DE834D"  d="M126.4,200.6c-17.6,0.8-25.4,1.3-25.9,1.7c-1,0.8-0.9,2.5,0.1,3.5c0.7,0.7,3.2,0.6,27.5-0.4c19.1-0.8,26.8-1.2,27.4-1.7c1.8-1.5,0-4.4-2.6-4.3C152.2,199.5,140.3,200,126.4,200.6z"/><path fill="#DE834D"  d="M125.8,212c-17.9,0.8-24.7,1.2-25.2,1.7c-1.1,0.9-0.9,2.7,0.4,3.5c0.9,0.6,4.6,0.5,27.6-0.5c23.8-1,26.6-1.2,27.1-2c1.6-2.1,0-4-3.3-3.9C151.2,210.9,139.2,211.5,125.8,212z"/><path fill="#DE834D"  d="M126.8,223.4c-12.3,0.5-23,1.1-23.5,1.3c-1.3,0.5-1.5,2.9-0.3,3.9c1,0.8,49.1-1.1,50.2-2c0.4-0.3,0.7-1.2,0.7-2c0-1.5-1.1-2.4-3.2-2.3C149.9,222.4,139.2,222.9,126.8,223.4z"/><path fill="#DE834D"  d="M109.8,232.8c-0.8,0.7-1,1.2-0.8,2.1c0.5,2,7.2,7.9,10.8,9.7c2.9,1.4,3.5,1.5,8.2,1.5c4.7,0,5.3-0.1,8.3-1.5c2.3-1.1,4.4-2.6,7.1-5.3c4.3-4.2,4.6-5.4,2.2-6.7c-1.2-0.7-1.3-0.7-5.1,2.9c-5.2,5-7.8,6.3-12.5,6.3c-4.6,0-7.3-1.3-12.4-6.2c-2.1-2-4-3.6-4.3-3.6C111.1,231.9,110.4,232.3,109.8,232.8z"/></g></g></g>
</svg>