<svg width="381" height="340" viewBox="0 0 381 340" fill="none" xmlns="http://www.w3.org/2000/svg">
<path d="M291.861 299.502C293.297 296.31 295.401 291.193 296.124 287.133C297.35 280.795 288.202 283.002 288.202 283.002C288.202 283.002 293.142 275.497 292.776 269.485C292.41 263.472 286.693 266.483 286.693 266.483C286.693 266.483 291.632 241.71 284.415 237.207C277.197 232.705 272.258 266.139 272.258 266.139C272.258 266.139 269.221 261.257 263.522 263.138C257.823 265.018 260.485 280.027 260.485 280.027C260.485 280.027 254.026 272.523 252.508 280.027C251.392 285.56 257.283 294.963 260.457 299.529L291.861 299.502Z" fill="#DE834D" stroke="#263238" stroke-linecap="round" stroke-linejoin="round"/>
<path d="M274.526 299.502L281.268 254.232" stroke="#263238" stroke-linecap="round" stroke-linejoin="round"/>
<path d="M275.935 290.334L267.501 273.951" stroke="#263238" stroke-linecap="round" stroke-linejoin="round"/>
<path d="M276.776 283.671L287.452 275.334" stroke="#263238" stroke-linecap="round" stroke-linejoin="round"/>
<path d="M130.102 299.502C132.343 294.547 135.591 286.591 136.734 280.289C138.509 270.344 124.348 273.879 124.348 273.879C124.348 273.879 132.014 262.216 131.428 252.885C130.843 243.554 121.988 248.247 121.988 248.247C121.988 248.247 129.654 209.767 118.448 202.778C107.242 195.789 99.567 247.659 99.567 247.659C99.567 247.659 94.8559 240.109 86.0376 242.976C77.2192 245.842 81.3173 269.195 81.3173 269.195C81.3173 269.195 71.2549 257.532 68.9314 269.195C67.1933 277.794 76.341 292.395 81.2808 299.484L130.102 299.502Z" fill="#DE834D" stroke="#263238" stroke-linecap="round" stroke-linejoin="round"/>
<path d="M103.134 299.502L113.608 229.188" stroke="#263238" stroke-linecap="round" stroke-linejoin="round"/>
<path d="M105.311 285.262L92.2207 259.82" stroke="#263238" stroke-linecap="round" stroke-linejoin="round"/>
<path d="M106.62 274.91L123.205 261.971" stroke="#263238" stroke-linecap="round" stroke-linejoin="round"/>
<path d="M72.3447 299.502H315.619" stroke="#263238" stroke-linecap="round" stroke-linejoin="round"/>
<path d="M61.5312 299.502H65.5379" stroke="#263238" stroke-linecap="round" stroke-linejoin="round"/>
<path d="M265.526 83.0887C265.526 83.0887 256.872 73.9298 249.463 74.5356C242.053 75.1414 240.809 82.4829 236.482 83.0887C232.155 83.6945 224.745 76.371 219.184 79.427C213.622 82.4829 214.857 86.7595 210.53 87.3653C206.203 87.971 200.641 83.7035 196.314 85.557C193.051 87.0847 189.947 88.9259 187.048 91.0541H281.589C281.589 91.0541 279.119 80.078 265.526 83.0887Z" stroke="#263238" stroke-linecap="round" stroke-linejoin="round"/>
<path d="M139.461 52.5471C139.461 52.5471 130.808 43.3883 123.398 44.0031C115.988 44.6179 114.744 51.9414 110.418 52.5471C106.091 53.1529 98.6811 45.8294 93.1193 48.8854C87.5575 51.9414 88.7924 56.2179 84.4655 56.8237C80.1387 57.4294 74.5769 53.1619 70.25 55.0154C66.9842 56.5393 63.8801 58.3808 60.9834 60.5125H155.561C155.561 60.5125 153.055 49.5002 139.461 52.5471Z" stroke="#263238" stroke-linecap="round" stroke-linejoin="round"/>
<path d="M123.397 44.0031L131.319 42.3304" stroke="#263238" stroke-linecap="round" stroke-linejoin="round"/>
<path d="M131.319 43.6866C132.077 43.6866 132.692 43.0794 132.692 42.3304C132.692 41.5814 132.077 40.9742 131.319 40.9742C130.562 40.9742 129.947 41.5814 129.947 42.3304C129.947 43.0794 130.562 43.6866 131.319 43.6866Z" fill="#263238"/>
<path d="M71.4293 53.5959H68.4014V56.5886H71.4293V53.5959Z" fill="white" stroke="#263238" stroke-linecap="round" stroke-linejoin="round"/>
<path d="M85.3785 55.1782H82.3506V58.1708H85.3785V55.1782Z" fill="white" stroke="#263238" stroke-linecap="round" stroke-linejoin="round"/>
<path d="M93.813 47.9089H90.7852V50.9016H93.813V47.9089Z" fill="white" stroke="#263238" stroke-linecap="round" stroke-linejoin="round"/>
<path d="M109.73 50.5491H106.702V53.5417H109.73V50.5491Z" fill="white" stroke="#263238" stroke-linecap="round" stroke-linejoin="round"/>
<path d="M124.138 42.6379H121.11V45.6306H124.138V42.6379Z" fill="white" stroke="#263238" stroke-linecap="round" stroke-linejoin="round"/>
<path d="M140.97 51.0554H137.942V54.048H140.97V51.0554Z" fill="white" stroke="#263238" stroke-linecap="round" stroke-linejoin="round"/>
<path d="M157.043 58.9937H154.015V61.9863H157.043V58.9937Z" fill="white" stroke="#263238" stroke-linecap="round" stroke-linejoin="round"/>
<path d="M62.7115 58.9937H59.6836V61.9863H62.7115V58.9937Z" fill="white" stroke="#263238" stroke-linecap="round" stroke-linejoin="round"/>
<path d="M236.839 223.618L228.78 217.009L229.732 227.316L232.302 223.672L236.839 223.618Z" fill="#263238"/>
<path d="M148.601 107.066L155.187 117.12L161.764 110.62L157.282 101.153L159.075 94.3543L149.799 90.8101L148.601 107.066Z" fill="white" stroke="#263238" stroke-linecap="round" stroke-linejoin="round"/>
<path d="M135.007 91L135.308 97.2024L132.692 102.519C132.619 102.669 132.582 102.834 132.584 103C132.586 103.167 132.628 103.331 132.705 103.479C132.782 103.627 132.893 103.755 133.029 103.854C133.165 103.952 133.322 104.018 133.488 104.047L136.781 104.598C136.781 104.598 140.669 115.24 141.867 115.538C143.066 115.837 155.031 110.213 155.324 108.142C155.616 106.072 156.238 102.229 156.238 102.229C157.114 101.938 157.875 101.381 158.412 100.638C158.949 99.8941 159.235 99.002 159.23 98.0884C159.23 94.8426 153.549 93.9565 153.549 93.9565L135.007 91Z" fill="white" stroke="#263238" stroke-linecap="round" stroke-linejoin="round"/>
<path d="M138.712 97.2566C138.712 98.1607 138.392 98.8569 137.989 98.8569C137.587 98.8569 137.267 98.1607 137.267 97.2566C137.267 96.3524 137.596 95.6562 137.998 95.6562C138.401 95.6562 138.712 96.3524 138.712 97.2566Z" fill="#263238"/>
<path d="M136.452 94.3814C136.644 94.0785 136.904 93.8238 137.213 93.6374C137.521 93.451 137.869 93.338 138.229 93.3073C138.589 93.2767 138.952 93.3291 139.288 93.4606C139.624 93.5921 139.925 93.799 140.166 94.065" stroke="#263238" stroke-linecap="round" stroke-linejoin="round"/>
<path d="M138.712 105.882C139.582 105.992 140.464 105.796 141.204 105.328C141.943 104.86 142.492 104.151 142.755 103.323" stroke="#263238" stroke-linecap="round" stroke-linejoin="round"/>
<path d="M135.007 91L165.524 96.027C165.524 96.027 166.127 85.3763 162.532 79.7526C158.937 74.1289 147.576 75.024 141.593 77.3838C135.611 79.7435 135.007 91 135.007 91Z" fill="#DE834D" stroke="#263238" stroke-linecap="round" stroke-linejoin="round"/>
<path d="M147.878 93.3598C147.878 93.3598 147.878 97.7991 149.707 97.5007C151.537 97.2024 153.595 93.9565 153.595 93.9565L147.878 93.3598Z" fill="#263238" stroke="#263238" stroke-linecap="round" stroke-linejoin="round"/>
<path d="M151.774 93.9565C151.774 93.9565 161.645 104.607 165.834 104.897C170.024 105.186 176.007 103.712 174.506 101.94C173.006 100.168 165.359 95.5026 165.359 95.5026L151.774 93.9565Z" fill="#DE834D" stroke="#263238" stroke-linecap="round" stroke-linejoin="round"/>
<path d="M179.2 195.5C189.033 209.966 202.481 229.595 203.048 229.775C203.963 230.074 256.9 204.64 256.9 204.64C256.9 204.64 268.865 230.074 270.366 229.775C271.866 229.477 268.271 197.227 266.771 196.955C265.27 196.684 206.643 215.879 206.643 215.879L195.272 178.918L195.199 178.728C196.141 176.027 196.668 173.202 196.763 170.347L162.661 178.33L162.963 185.129C162.963 185.129 139.627 216.774 139.627 218.248C139.627 219.721 144.411 267.333 144.411 267.333C144.411 267.333 121.377 281.519 122.575 282.116C123.774 282.712 155.187 282.116 155.187 282.116L153.357 265.841L151.263 219.423C151.263 219.423 166.722 206.657 179.2 195.5Z" stroke="#263238" stroke-linecap="round" stroke-linejoin="round"/>
<path d="M141.089 216.711H138.062V219.703H141.089V216.711Z" fill="white" stroke="#263238" stroke-linecap="round" stroke-linejoin="round"/>
<path d="M152.808 217.931H149.78V220.924H152.808V217.931Z" fill="white" stroke="#263238" stroke-linecap="round" stroke-linejoin="round"/>
<path d="M145.929 265.832H142.901V268.825H145.929V265.832Z" fill="white" stroke="#263238" stroke-linecap="round" stroke-linejoin="round"/>
<path d="M124.085 280.615H121.057V283.607H124.085V280.615Z" fill="white" stroke="#263238" stroke-linecap="round" stroke-linejoin="round"/>
<path d="M154.903 264.349H151.875V267.342H154.903V264.349Z" fill="white" stroke="#263238" stroke-linecap="round" stroke-linejoin="round"/>
<path d="M204.557 228.284H201.529V231.276H204.557V228.284Z" fill="white" stroke="#263238" stroke-linecap="round" stroke-linejoin="round"/>
<path d="M180.709 193.999H177.681V196.991H180.709V193.999Z" fill="white" stroke="#263238" stroke-linecap="round" stroke-linejoin="round"/>
<path d="M208.152 214.378H205.124V217.371H208.152V214.378Z" fill="white" stroke="#263238" stroke-linecap="round" stroke-linejoin="round"/>
<path d="M258.41 203.149H255.382V206.141H258.41V203.149Z" fill="white" stroke="#263238" stroke-linecap="round" stroke-linejoin="round"/>
<path d="M271.4 228.51H268.372V231.502H271.4V228.51Z" fill="white" stroke="#263238" stroke-linecap="round" stroke-linejoin="round"/>
<path d="M268.336 195.247H265.308V198.239H268.336V195.247Z" fill="white" stroke="#263238" stroke-linecap="round" stroke-linejoin="round"/>
<path d="M156.249 280.19H153.221V283.183H156.249V280.19Z" fill="white" stroke="#263238" stroke-linecap="round" stroke-linejoin="round"/>
<path d="M223.694 156.45L209.332 117.717L197.44 114.381L193.909 122.807L201.849 124.815L216.486 157.924C216.486 157.924 215.287 161.179 215.571 162.662C215.855 164.144 218.562 170.347 220.355 171.233C220.792 171.502 221.318 171.592 221.821 171.482C222.324 171.372 222.763 171.072 223.045 170.645C223.045 170.645 229.329 168.276 229.933 166.793C230.537 165.311 228.433 162.662 228.103 160.591C227.774 158.521 223.694 156.45 223.694 156.45Z" fill="white" stroke="#263238" stroke-linecap="round" stroke-linejoin="round"/>
<path d="M212.534 287.721H97.5933L83.1857 279.05C82.8729 278.876 82.5988 278.64 82.3799 278.359C82.161 278.077 82.0016 277.755 81.9113 277.411C81.8209 277.067 81.8015 276.709 81.854 276.357C81.9066 276.006 82.0302 275.669 82.2173 275.365C82.4045 275.062 82.6514 274.799 82.9435 274.592C83.2355 274.385 83.5667 274.238 83.9174 274.16C84.268 274.082 84.6309 274.075 84.9845 274.138C85.3381 274.202 85.6752 274.335 85.9757 274.53L99.0935 282.423H210.32L214.894 277.902C215.403 277.44 216.073 277.189 216.764 277.204C217.456 277.218 218.115 277.496 218.603 277.979C219.092 278.462 219.373 279.114 219.388 279.797C219.402 280.48 219.149 281.142 218.681 281.645L212.534 287.721Z" fill="#263238" stroke="#263238" stroke-miterlimit="10"/>
<path d="M113.666 293.878C113.667 292.825 113.353 291.794 112.762 290.917C112.171 290.04 111.33 289.356 110.346 288.952C109.362 288.547 108.278 288.441 107.232 288.645C106.186 288.85 105.225 289.356 104.471 290.1C103.717 290.845 103.202 291.794 102.994 292.827C102.785 293.86 102.891 294.931 103.299 295.905C103.706 296.879 104.397 297.711 105.283 298.296C106.17 298.882 107.212 299.195 108.278 299.195C109.705 299.195 111.074 298.635 112.084 297.638C113.094 296.641 113.663 295.289 113.666 293.878Z" fill="#263238" stroke="#263238" stroke-linecap="round" stroke-linejoin="round"/>
<path d="M108.277 296.41C109.692 296.41 110.839 295.277 110.839 293.878C110.839 292.48 109.692 291.347 108.277 291.347C106.863 291.347 105.716 292.48 105.716 293.878C105.716 295.277 106.863 296.41 108.277 296.41Z" fill="white" stroke="#263238" stroke-linecap="round" stroke-linejoin="round"/>
<path d="M195.93 293.878C195.932 292.824 195.617 291.793 195.026 290.916C194.435 290.039 193.593 289.355 192.608 288.951C191.624 288.547 190.539 288.441 189.493 288.646C188.447 288.851 187.486 289.358 186.732 290.104C185.978 290.849 185.465 291.799 185.257 292.833C185.05 293.866 185.157 294.938 185.566 295.911C185.975 296.885 186.667 297.716 187.555 298.301C188.442 298.885 189.485 299.196 190.551 299.195C191.977 299.192 193.344 298.631 194.352 297.635C195.36 296.638 195.928 295.288 195.93 293.878V293.878Z" fill="#263238" stroke="#263238" stroke-linecap="round" stroke-linejoin="round"/>
<path d="M193.112 293.878C193.112 293.378 192.962 292.888 192.68 292.472C192.399 292.056 191.999 291.731 191.531 291.54C191.063 291.348 190.548 291.298 190.051 291.395C189.554 291.493 189.098 291.734 188.739 292.088C188.381 292.442 188.137 292.893 188.038 293.384C187.94 293.876 187.99 294.385 188.184 294.847C188.378 295.31 188.706 295.705 189.128 295.983C189.549 296.261 190.044 296.41 190.551 296.41C191.23 296.41 191.881 296.143 192.362 295.668C192.842 295.194 193.112 294.55 193.112 293.878V293.878Z" fill="white" stroke="#263238" stroke-linecap="round" stroke-linejoin="round"/>
<path d="M133.379 133.666L127.058 138.413L92.827 133.747L88.6831 127.418L82.051 128.051L81.8406 129.317C81.8406 129.317 77.5595 129.317 77.1296 130.167C76.6996 131.017 77.1296 133.973 77.1296 133.973L78.8402 134.389C78.8402 134.389 78.6298 138.196 79.7001 139.046C80.7703 139.895 90.4029 139.95 90.4029 139.95L131.247 149.696L140.258 142.246L133.379 133.666Z" fill="white" stroke="#263238" stroke-linecap="round" stroke-linejoin="round"/>
<path d="M218.892 168.457L225.231 166.649C225.496 166.565 225.728 166.399 225.892 166.177C226.057 165.954 226.145 165.686 226.146 165.41V165.41C226.144 165.094 226.026 164.79 225.814 164.554C225.602 164.318 225.31 164.166 224.993 164.126L220.584 163.629" fill="white"/>
<path d="M218.892 168.457L225.231 166.649C225.496 166.565 225.728 166.399 225.892 166.177C226.057 165.954 226.145 165.686 226.146 165.41V165.41C226.144 165.094 226.026 164.79 225.814 164.554C225.602 164.318 225.31 164.166 224.993 164.126L220.584 163.629" stroke="#263238" stroke-linecap="round" stroke-linejoin="round"/>
<path d="M223.602 164.235L222.312 160.22" stroke="#263238" stroke-linecap="round" stroke-linejoin="round"/>
<path d="M226.163 164.235L228.734 163.177" stroke="#263238" stroke-linecap="round" stroke-linejoin="round"/>
<path d="M194.293 129.272L202.526 115.547C202.526 115.547 180.955 108.829 172.393 107.663C163.831 106.497 161.462 109.119 161.462 109.119L147.063 123.033L128.118 137.147L137.266 151.505L150.804 140.655L162.074 187.95C162.074 187.95 177.754 187.588 185.749 184.334C194.256 180.826 202.562 173.71 202.562 173.71L176.226 118.558L194.293 129.272Z" fill="#263238" stroke="#263238" stroke-miterlimit="10"/>
<path d="M52.1182 22.2135V315.731H335.633V22.2135H52.1182ZM332.495 306.437H55.2558V34.6182H332.495V306.437Z" fill="#263238" stroke="#263238" stroke-linecap="round" stroke-linejoin="round"/>
<path opacity="0.2" d="M52.1182 22.2135V315.731H335.633V22.2135H52.1182ZM332.495 306.437H55.2558V34.6182H332.495V306.437Z" fill="white"/>
<path d="M332.495 34.6182H55.2559V306.437H332.495V34.6182Z" stroke="#263238" stroke-linecap="round" stroke-linejoin="round"/>
<path d="M62.3822 23.7144H56.5186V31.8515H63.5806V24.8355L62.3822 23.7144ZM63.1232 31.3362H56.9759V24.2387H62.0803L63.1232 25.2152V31.3362Z" fill="#DE834D"/>
<path d="M327.125 25.4866L322.643 29.3291" stroke="#DE834D" stroke-miterlimit="10"/>
<path d="M322.643 25.4866L327.125 29.3291" stroke="#DE834D" stroke-miterlimit="10"/>
<path d="M333.1 23.1267V31.9872H292.447V23.1267" stroke="#DE834D" stroke-width="0.5" stroke-miterlimit="10"/>
<path d="M316.963 31.9872V23.425" stroke="#DE834D" stroke-width="0.5" stroke-miterlimit="10"/>
<path d="M304.108 31.9872V23.425" stroke="#DE834D" stroke-width="0.5" stroke-miterlimit="10"/>
<path d="M313.074 25.3418H307.997V28.886H313.074V25.3418Z" stroke="#DE834D" stroke-miterlimit="10"/>
<path d="M299.325 28.7414H294.843" stroke="#DE834D" stroke-miterlimit="10"/>
<path d="M332.495 34.5459H322.387V306.437H332.495V34.5459Z" fill="#263238"/>
<path opacity="0.2" d="M328.809 173.8H326.504C324.604 173.8 323.064 175.322 323.064 177.2V186.395C323.064 188.272 324.604 189.795 326.504 189.795H328.809C330.709 189.795 332.249 188.272 332.249 186.395V177.2C332.249 175.322 330.709 173.8 328.809 173.8Z" fill="white"/>
<path d="M59.1249 125.203H24.9766V243.789H59.1249V125.203Z" fill="#263238"/>
<path opacity="0.2" d="M59.1249 125.203H24.9766V243.789H59.1249V125.203Z" fill="white"/>
<path d="M39.0731 141.252H30.3005C29.2042 141.252 28.3154 142.13 28.3154 143.214V152.201C28.3154 153.284 29.2042 154.163 30.3005 154.163H39.0731C40.1694 154.163 41.0582 153.284 41.0582 152.201V143.214C41.0582 142.13 40.1694 141.252 39.0731 141.252Z" fill="#263238"/>
<path d="M59.1249 125.203H24.9766V131.198H59.1249V125.203Z" fill="#263238"/>
<path d="M36.2744 132.174V134.778" stroke="#263238" stroke-linecap="round" stroke-linejoin="round"/>
<path d="M37.582 132.174V134.778" stroke="#263238" stroke-linecap="round" stroke-linejoin="round"/>
<path d="M38.8994 132.174V134.778" stroke="#263238" stroke-linecap="round" stroke-linejoin="round"/>
<path d="M40.2168 132.174V134.778" stroke="#263238" stroke-linecap="round" stroke-linejoin="round"/>
<path d="M41.5342 132.174V134.778" stroke="#263238" stroke-linecap="round" stroke-linejoin="round"/>
<path d="M42.8516 132.174V134.778" stroke="#263238" stroke-linecap="round" stroke-linejoin="round"/>
<path d="M44.168 132.174V134.778" stroke="#263238" stroke-linecap="round" stroke-linejoin="round"/>
<path d="M45.4854 132.174V134.778" stroke="#263238" stroke-linecap="round" stroke-linejoin="round"/>
<path d="M46.7939 132.174V134.778" stroke="#263238" stroke-linecap="round" stroke-linejoin="round"/>
<path d="M48.1113 132.174V134.778" stroke="#263238" stroke-linecap="round" stroke-linejoin="round"/>
<path d="M38.3687 148.521L32.0659 143.367C31.9934 143.308 31.9046 143.271 31.8109 143.261C31.7171 143.252 31.6226 143.27 31.5392 143.313C31.4559 143.357 31.3876 143.424 31.3429 143.506C31.2983 143.588 31.2793 143.682 31.2883 143.774L32.0293 151.857C32.0395 151.953 32.0791 152.043 32.1429 152.116C32.2067 152.189 32.2916 152.241 32.3861 152.264H32.505C32.5818 152.264 32.6575 152.246 32.7259 152.211C32.7943 152.177 32.8534 152.127 32.8983 152.065L34.7279 149.407H38.0393C38.1367 149.404 38.2309 149.372 38.3096 149.315C38.3883 149.258 38.4478 149.179 38.4804 149.088C38.513 148.998 38.5171 148.899 38.4923 148.806C38.4675 148.713 38.4148 148.629 38.3412 148.566L38.3687 148.521Z" fill="white"/>
<path d="M38.057 148.883L31.7451 143.702L32.4861 151.785L34.5077 148.928L38.057 148.883Z" fill="#263238"/>
<path d="M53.5082 148.883L47.1963 143.702L47.9464 151.785L49.9589 148.928L53.5082 148.883Z" fill="white"/>
<path d="M56.0156 153.485L55.8967 151.821L54.3965 153.213L56.0156 153.485Z" fill="white"/>
<path d="M56.0156 206.476L55.8967 204.812L54.3965 206.214L56.0156 206.476Z" fill="white"/>
<path d="M56.0156 222.741L55.8967 221.078L54.3965 222.479L56.0156 222.741Z" fill="white"/>
<path d="M56.0156 239.422L55.8967 237.759L54.3965 239.151L56.0156 239.422Z" fill="white"/>
<path d="M40.3076 187.697L40.1887 186.033L38.6885 187.435L40.3076 187.697Z" fill="white"/>
<path d="M40.3076 206.476L40.1887 204.812L38.6885 206.214L40.3076 206.476Z" fill="white"/>
<path d="M40.3076 222.741L40.1887 221.078L38.6885 222.479L40.3076 222.741Z" fill="white"/>
<path d="M40.3076 239.422L40.1887 237.759L38.6885 239.151L40.3076 239.422Z" fill="white"/>
<path d="M37.8758 164.085L36.7822 163.165L29.7611 171.316L30.8546 172.236L37.8758 164.085Z" fill="white"/>
<path d="M34.5452 163.349C33.0632 161.73 33.0358 161.414 34.2433 159.578C32.6059 161.043 32.2765 161.07 30.4287 159.886C31.9106 161.504 31.9381 161.821 30.7397 163.647C32.368 162.182 32.6973 162.155 34.5452 163.349Z" fill="white"/>
<path d="M41.1124 164.226C40.1976 163.222 40.1976 163.023 40.9203 161.902C39.914 162.806 39.7128 162.806 38.5693 162.083C39.4841 163.087 39.4841 163.285 38.7614 164.407C39.7677 163.502 39.9689 163.493 41.1124 164.226Z" fill="white"/>
<path d="M39.2741 168.059C38.6246 167.345 38.6155 167.2 39.1369 166.396C38.4234 167.038 38.277 167.056 37.4629 166.531C38.1124 167.237 38.1307 167.381 37.6001 168.186C38.3136 167.544 38.4691 167.535 39.2741 168.059Z" fill="white"/>
<path d="M46.3818 204.188L47.0405 204.812L54.0568 196.657L53.4073 196.042L46.3818 204.188Z" fill="white"/>
<path d="M56.2526 169.225L50.6816 164.651L51.3403 171.775L53.1149 169.262L56.2526 169.225Z" fill="white"/>
<path d="M50.608 169.641C47.9369 169.641 45.7598 168.086 45.7598 166.17C45.7598 164.253 47.9369 162.698 50.608 162.698C53.2792 162.698 55.4563 164.253 55.4563 166.17C55.4563 168.086 53.2883 169.641 50.608 169.641ZM50.608 163.114C48.1656 163.114 46.1806 164.479 46.1806 166.17C46.1806 167.86 48.1656 169.226 50.608 169.226C53.0505 169.226 55.0355 167.851 55.0355 166.17C55.0355 164.488 53.0505 163.114 50.608 163.114Z" fill="white"/>
<path d="M47.6635 168.945C47.4257 168.947 47.1928 168.879 46.9943 168.749C46.7959 168.62 46.6409 168.435 46.549 168.218C46.4572 168.002 46.4327 167.763 46.4786 167.532C46.5246 167.301 46.6389 167.09 46.807 166.923C46.9752 166.757 47.1895 166.644 47.4229 166.599C47.6562 166.553 47.8979 166.578 48.1172 166.668C48.3365 166.759 48.5236 166.912 48.6546 167.108C48.7856 167.305 48.8545 167.535 48.8527 167.77C48.8503 168.081 48.7243 168.378 48.5018 168.598C48.2793 168.818 47.9782 168.943 47.6635 168.945V168.945ZM47.6635 167.001C47.5094 167 47.3581 167.043 47.2291 167.126C47.1 167.21 46.9989 167.329 46.9387 167.469C46.8784 167.61 46.8617 167.765 46.8907 167.914C46.9196 168.064 46.9929 168.202 47.1013 168.31C47.2097 168.418 47.3482 168.493 47.4993 168.523C47.6504 168.553 47.8072 168.539 47.9498 168.481C48.0924 168.423 48.2144 168.324 48.3002 168.198C48.3861 168.071 48.4319 167.922 48.4319 167.77C48.4319 167.568 48.3513 167.374 48.2074 167.23C48.0636 167.086 47.8682 167.004 47.6635 167.001V167.001Z" fill="white"/>
<path d="M47.3062 170.184L47.1689 169.795C47.6757 169.662 48.1092 169.337 48.3764 168.891C48.5274 168.571 48.5502 168.206 48.4405 167.869L48.843 167.734C48.9876 168.171 48.9581 168.646 48.7606 169.063C48.6059 169.336 48.3976 169.576 48.1478 169.768C47.8981 169.961 47.6119 170.102 47.3062 170.184V170.184Z" fill="white"/>
<path d="M32.8756 179.975L36.582 183.639L38.3026 181.938L34.5962 178.275L32.8756 179.975Z" fill="white"/>
<path d="M28.4072 186.684L29.011 187.29L31.984 184.352C31.9191 184.244 31.8928 184.117 31.9094 183.992C31.926 183.868 31.9845 183.752 32.0755 183.665C32.1525 183.587 32.2499 183.533 32.3566 183.508C32.4633 183.483 32.5751 183.488 32.6791 183.522C32.7831 183.557 32.8752 183.619 32.9448 183.703C33.0145 183.787 33.0589 183.889 33.0731 183.996C33.0872 184.104 33.0705 184.213 33.0248 184.312C32.9791 184.41 32.9064 184.494 32.8147 184.554C32.7231 184.613 32.6164 184.646 32.5067 184.649C32.397 184.652 32.2888 184.624 32.1944 184.569L29.2305 187.507L29.7977 188.059L34.8106 186.766L36.1187 184.053L32.4597 180.437L29.7153 181.657L28.4072 186.684Z" fill="white"/>
<path d="M27.877 175.184H57.2685" stroke="#263238" stroke-linecap="round" stroke-linejoin="round"/>
<path d="M52.2714 178.276L50.5508 179.976L54.2572 183.639L55.9778 181.939L52.2714 178.276Z" fill="white"/>
<path d="M47.3785 181.703L46.043 186.684L46.6467 187.29L49.6197 184.352C49.5548 184.244 49.5286 184.117 49.5451 183.992C49.5617 183.868 49.6202 183.752 49.7112 183.665C49.7882 183.587 49.8856 183.533 49.9924 183.508C50.0991 183.483 50.2108 183.488 50.3148 183.522C50.4188 183.557 50.5109 183.619 50.5806 183.703C50.6502 183.787 50.6947 183.889 50.7088 183.996C50.7229 184.104 50.7062 184.213 50.6606 184.312C50.6149 184.41 50.5421 184.494 50.4505 184.554C50.3589 184.613 50.2522 184.646 50.1425 184.649C50.0328 184.652 49.9245 184.624 49.8301 184.569L46.8663 187.507L47.4334 188.059L52.5104 186.766L53.8185 184.053L50.1594 180.437L47.3785 181.703Z" fill="white"/>
<path d="M45.5684 183.149C45.7514 182.797 45.9434 182.417 46.1356 181.992C46.3232 181.646 46.4326 181.264 46.4563 180.872C46.48 180.48 46.4174 180.088 46.2728 179.723C45.9031 179.062 45.2854 178.572 44.553 178.357C44.4911 178.341 44.4251 178.349 44.3693 178.38C44.3136 178.411 44.2727 178.463 44.2557 178.525C44.2387 178.586 44.247 178.651 44.2787 178.706C44.3105 178.761 44.3631 178.802 44.4249 178.818C45.0265 178.992 45.5354 179.391 45.8428 179.931C45.9579 180.232 46.0053 180.555 45.9816 180.877C45.9579 181.198 45.8637 181.511 45.7056 181.793C45.5135 182.218 45.3214 182.589 45.1385 182.932C44.2237 184.741 43.6565 185.835 46.0532 187.634C46.101 187.648 46.1518 187.648 46.1996 187.634C46.2351 187.634 46.2701 187.626 46.3019 187.61C46.3336 187.594 46.3612 187.571 46.3825 187.543C46.4256 187.498 46.4496 187.438 46.4496 187.376C46.4496 187.314 46.4256 187.254 46.3825 187.209C44.2603 185.717 44.6445 184.958 45.5684 183.149Z" fill="white"/>
<path d="M27.9958 195.256V195.726C27.9891 196.439 28.0289 197.151 28.1148 197.859L29.0295 197.652C28.9651 197.172 28.9345 196.689 28.9381 196.205H32.5971V204.261H31.2341V205.165H34.8932V204.261H33.5485V196.205H37.0795V197.896H37.9943C37.9943 197.281 37.9943 195.717 37.9943 195.717V195.247L27.9958 195.256Z" fill="white"/>
<path opacity="0.44" d="M33.4191 221.367C36.3241 221.367 38.679 219.687 38.679 217.615C38.679 215.542 36.3241 213.863 33.4191 213.863C30.5141 213.863 28.1592 215.542 28.1592 217.615C28.1592 219.687 30.5141 221.367 33.4191 221.367Z" fill="white"/>
<path d="M33.4191 221.367C36.3241 221.367 38.679 219.687 38.679 217.615C38.679 215.542 36.3241 213.863 33.4191 213.863C30.5141 213.863 28.1592 215.542 28.1592 217.615C28.1592 219.687 30.5141 221.367 33.4191 221.367Z" stroke="white" stroke-miterlimit="10"/>
<path d="M49.4463 217.723L55.2276 211.53C55.3428 211.41 55.4955 211.331 55.6614 211.306C55.8272 211.282 55.9965 211.313 56.1424 211.394V211.394C56.3131 211.499 56.435 211.666 56.4813 211.859C56.5276 212.052 56.4945 212.256 56.3894 212.425L51.9711 219.315L49.4463 217.723Z" fill="white"/>
<path d="M48.6879 218.239C50.115 218.067 52.347 219.206 51.7524 220.951C51.5557 221.362 51.2095 221.685 50.7827 221.855C49.4838 222.375 48.0834 222.601 46.6846 222.515C46.8946 222.396 47.0751 222.231 47.2128 222.034C47.3504 221.837 47.4419 221.612 47.4804 221.376C47.488 220.887 47.4635 220.397 47.4072 219.911C47.4072 219.215 47.9012 218.275 48.6879 218.22" fill="white"/>
<path d="M36.3839 231.828C36.3533 231.217 36.14 230.628 35.771 230.137L34.1152 231.773C34.5444 232.329 34.7931 233.001 34.8288 233.699C34.8788 234.338 34.9891 234.97 35.1581 235.589L36.7864 233.98C36.5674 233.28 36.4323 232.558 36.3839 231.828V231.828Z" fill="white"/>
<path d="M34.4721 233.726C34.441 233.116 34.2278 232.527 33.8592 232.036L32.1943 233.672C32.6313 234.221 32.8839 234.891 32.917 235.589C32.9651 236.227 33.0722 236.86 33.2372 237.479L34.8655 235.869C34.6547 235.172 34.5228 234.453 34.4721 233.726Z" fill="white"/>
<path d="M36.7497 231.801C36.7951 232.44 36.9054 233.073 37.079 233.69L39.4665 231.321L37.0241 228.907L36.0361 229.884C36.4656 230.436 36.7145 231.105 36.7497 231.801V231.801Z" fill="white"/>
<path d="M32.5503 235.589C32.5198 234.978 32.3065 234.389 31.9374 233.898L30.547 235.272L29.5225 238.401C29.505 238.449 29.5021 238.502 29.514 238.553C29.526 238.603 29.5522 238.649 29.5898 238.685C29.6273 238.721 29.6745 238.746 29.7257 238.756C29.777 238.767 29.8303 238.763 29.8792 238.744L32.9803 237.741C32.7629 237.04 32.6189 236.319 32.5503 235.589V235.589ZM30.5836 237.677L31.1325 236.023L32.2393 237.117L30.5836 237.677Z" fill="white"/>
<path d="M46.601 233.31L44.7715 235.119L49.0709 239.377L50.9004 237.569L51.1657 237.831L55.4651 233.573L50.6443 228.799L46.3357 233.057L46.601 233.31ZM49.08 238.301L45.7869 235.11L47.0859 233.826L50.3607 237.045L49.08 238.301Z" fill="white"/>
<path d="M30.9684 126.786V127.355L29.7701 128.359L30.9684 129.353V129.923L29.084 128.359L30.9684 126.786Z" fill="white"/>
<path d="M28.902 126.786V127.355L27.7128 128.359L28.902 129.353V129.923L27.0176 128.359L28.902 126.786Z" fill="white"/>
<path d="M368.436 70.9373H247.723V149.904H368.436V70.9373Z" fill="#263238"/>
<path opacity="0.1" d="M368.435 74.2374H288.621V89.4178H368.435V74.2374Z" fill="white"/>
<path opacity="0.2" d="M288.622 89.4269V74.2374H247.723V149.904H368.436V89.4269H288.622Z" fill="white"/>
<path d="M261.609 103.567H255.709V109.399H261.609V103.567Z" fill="white"/>
<path d="M264.555 106.479H258.654V112.31H264.555V106.479Z" fill="white"/>
<path d="M277.17 106.479H280.115V103.567H274.215V109.399H277.17V106.479Z" fill="white"/>
<path d="M283.316 112.555H276.913V106.226H283.316V112.555ZM277.416 112.057H282.813V106.732H277.416V112.057Z" fill="white"/>
<path d="M299.124 109.643H292.721V103.314H299.124V109.643ZM293.233 109.146H298.63V103.812H293.233V109.146Z" fill="white"/>
<path d="M302.079 112.555H295.676V106.226H302.079V112.555ZM296.179 112.057H301.576V106.732H296.179V112.057Z" fill="white"/>
<path d="M298.877 106.479H295.932V109.39H298.877V106.479Z" fill="white"/>
<path d="M317.748 139.344H311.684V133.35H317.748V139.344ZM311.848 139.181H317.584V133.512H311.848V139.181Z" fill="white"/>
<path d="M320.868 142.463H314.465V136.134H320.868V142.463ZM314.968 141.975H320.365V136.641H314.968V141.975Z" fill="white"/>
<path d="M317.666 136.351H314.721V139.263H317.666V136.351Z" fill="white"/>
<path d="M336.83 139.507H330.427V133.178H336.83V139.507ZM330.939 139.009H336.327V133.684H330.939V139.009Z" fill="white"/>
<path d="M339.775 142.463H333.372V136.134H339.775V142.463ZM333.884 141.975H339.281V136.641H333.884V141.975Z" fill="white"/>
<path d="M355.409 136.351V139.263H352.464V142.174H358.364V136.351H355.409Z" fill="white"/>
<path d="M358.639 142.463H352.235V139.055H355.181V136.134H358.639V142.463ZM352.738 141.975H358.136V136.641H355.693V139.552H352.738V141.975Z" fill="white"/>
<path d="M355.666 139.507H349.263V133.178H355.666V139.507ZM349.766 139.009H355.163V133.684H349.766V139.009Z" fill="white"/>
<path d="M257.969 135.357H261.253V132.78H255.353V138.603H257.969V135.357Z" fill="white"/>
<path d="M260.914 136.017H258.636V138.268H260.914V136.017Z" fill="white"/>
<path d="M261.582 135.691V138.937H258.307V141.523H264.198V135.691H261.582Z" fill="white"/>
<path d="M317.52 106.479V103.567H311.62V109.399H314.566V106.479H317.52Z" fill="white"/>
<path d="M317.52 106.479V109.399H314.565V112.31H320.466V106.479H317.52Z" fill="white"/>
<path d="M276.374 135.248H280.088V132.554H274.188V138.386H276.374V135.248Z" fill="white"/>
<path d="M283.033 135.908H276.968V141.297H283.033V135.908Z" fill="white"/>
<path d="M298.914 136.134V133.214H293.022V139.046H295.547V136.387H296.215V141.957H301.868V136.134H298.914Z" fill="white"/>
<path d="M256.23 126.062H280.609" stroke="white" stroke-width="2" stroke-miterlimit="10"/>
<path d="M256.23 82.1577H280.609" stroke="white" stroke-width="2" stroke-miterlimit="10"/>
<path d="M256.23 97.8443H292.291" stroke="white" stroke-width="2" stroke-miterlimit="10"/>
<path d="M346.555 77.872V78.6677L348.229 80.0691L346.555 81.4614V82.2571L349.189 80.0691L346.555 77.872Z" fill="white"/>
<path d="M349.437 77.872V78.6677L351.111 80.0691L349.437 81.4614V82.2571L352.071 80.0691L349.437 77.872Z" fill="white"/>
<path d="M355.409 76.5519V84.1376" stroke="white" stroke-width="0.5" stroke-miterlimit="10"/>
<path d="M358.749 78.8575H364.768" stroke="white" stroke-width="0.5" stroke-miterlimit="10"/>
<path d="M358.749 80.1776H364.768" stroke="white" stroke-width="0.5" stroke-miterlimit="10"/>
<path d="M358.749 81.4976H364.768" stroke="white" stroke-width="0.5" stroke-miterlimit="10"/>
<path d="M358.749 82.8176H364.768" stroke="white" stroke-width="0.5" stroke-miterlimit="10"/>
</svg>
