<svg width="366" height="341" viewBox="0 0 366 341" fill="none" xmlns="http://www.w3.org/2000/svg">
<g opacity="0.3">
<path d="M287.662 65.8104C289.343 65.8104 290.706 64.4395 290.706 62.7483C290.706 61.0571 289.343 59.6862 287.662 59.6862C285.981 59.6862 284.618 61.0571 284.618 62.7483C284.618 64.4395 285.981 65.8104 287.662 65.8104Z" stroke="#F2F2F2" stroke-linecap="round" stroke-linejoin="round"/>
<path d="M20.5818 117.867C22.2628 117.867 23.6255 116.496 23.6255 114.805C23.6255 113.113 22.2628 111.742 20.5818 111.742C18.9008 111.742 17.5381 113.113 17.5381 114.805C17.5381 116.496 18.9008 117.867 20.5818 117.867Z" stroke="#F2F2F2" stroke-linecap="round" stroke-linejoin="round"/>
<path d="M249.616 276.321C251.297 276.321 252.66 274.95 252.66 273.258C252.66 271.567 251.297 270.196 249.616 270.196C247.935 270.196 246.572 271.567 246.572 273.258C246.572 274.95 247.935 276.321 249.616 276.321Z" stroke="#F2F2F2" stroke-linecap="round" stroke-linejoin="round"/>
<path d="M25.9119 251.062C27.5929 251.062 28.9556 249.691 28.9556 248C28.9556 246.308 27.5929 244.938 25.9119 244.938C24.2309 244.938 22.8682 246.308 22.8682 248C22.8682 249.691 24.2309 251.062 25.9119 251.062Z" stroke="#F2F2F2" stroke-linecap="round" stroke-linejoin="round"/>
<path d="M232.302 116.143L225.84 122.644" stroke="#F2F2F2" stroke-linecap="round" stroke-linejoin="round"/>
<path d="M232.302 122.644L225.84 116.143" stroke="#F2F2F2" stroke-linecap="round" stroke-linejoin="round"/>
<path d="M209.1 302.934L215.562 309.427" stroke="#F2F2F2" stroke-linecap="round" stroke-linejoin="round"/>
<path d="M215.562 302.934L209.1 309.427" stroke="#F2F2F2" stroke-linecap="round" stroke-linejoin="round"/>
<path d="M5.94434 156.721L12.3983 163.214" stroke="#F2F2F2" stroke-linecap="round" stroke-linejoin="round"/>
<path d="M12.3983 156.721L5.94434 163.214" stroke="#F2F2F2" stroke-linecap="round" stroke-linejoin="round"/>
<path d="M244.103 5.14478L250.564 11.6458" stroke="#F2F2F2" stroke-linecap="round" stroke-linejoin="round"/>
<path d="M250.564 5.14478L244.103 11.6458" stroke="#F2F2F2" stroke-linecap="round" stroke-linejoin="round"/>
<path d="M87.3594 10.5074L93.8133 17.0005" stroke="#F2F2F2" stroke-linecap="round" stroke-linejoin="round"/>
<path d="M93.8133 10.5074L87.3594 17.0005" stroke="#F2F2F2" stroke-linecap="round" stroke-linejoin="round"/>
</g>
<path opacity="0.3" d="M42.3409 295.511L44.4205 289.683L39.6398 287.038L35.8949 291.96C34.8197 291.704 33.7168 291.586 32.6122 291.607L29.9828 285.996L24.724 287.551L25.5208 293.691C24.5819 294.278 23.7177 294.978 22.9472 295.775L17.1546 293.683L14.5252 298.493L19.4175 302.26C19.1641 303.34 19.0437 304.446 19.0589 305.555L13.4814 308.2L15.0272 313.491L21.1305 312.689C21.716 313.63 22.4115 314.497 23.2022 315.271L21.1226 321.098L25.9431 323.744L29.6561 318.862C30.7316 319.116 31.8341 319.237 32.9388 319.222L35.5682 324.834L40.827 323.279L40.0302 317.138C40.9652 316.549 41.8265 315.85 42.5958 315.054L48.3884 317.146L51.0178 312.337L46.1256 308.569C46.3785 307.487 46.4989 306.378 46.4841 305.266L52.0616 302.629L50.5158 297.331L44.4125 298.132C44.277 297.9 44.1256 297.675 43.9663 297.451M26.2538 311.174C24.8631 309.581 24.0973 307.532 24.0996 305.411C24.102 303.29 24.8724 301.243 26.2667 299.652C27.661 298.061 29.5836 297.036 31.6748 296.769C33.766 296.501 35.8824 297.009 37.6281 298.198C39.3738 299.387 40.6291 301.175 41.1591 303.228C41.6891 305.28 41.4575 307.457 40.5076 309.35C39.5577 311.244 37.9547 312.724 35.9984 313.514C34.0421 314.304 31.8667 314.35 29.8792 313.643" stroke="#F2F2F2" stroke-linecap="round" stroke-linejoin="round"/>
<path opacity="0.3" d="M33.0661 276.393C31.7798 276.785 30.3981 276.715 29.1571 276.196C27.9161 275.676 26.8929 274.74 26.2622 273.546C25.6316 272.352 25.4327 270.974 25.6996 269.649C25.9664 268.324 26.6824 267.133 27.7253 266.28C28.7681 265.427 30.073 264.964 31.4171 264.972C32.7611 264.979 34.0608 265.456 35.0941 266.321C36.1274 267.186 36.8302 268.385 37.0823 269.713C37.3344 271.041 37.1202 272.416 36.4764 273.603C36.313 273.905 36.1237 274.192 35.9106 274.461M23.5844 281.339L26.7716 283.102L29.2814 279.808C30.0011 279.983 30.7403 280.064 31.4805 280.048L33.2335 283.8L36.7552 282.757L36.2134 278.645C36.8408 278.252 37.4187 277.783 37.9345 277.25L41.8068 278.653L43.5677 275.407L40.2929 272.89C40.4629 272.165 40.5431 271.422 40.532 270.677L44.2609 268.914L43.2251 265.371L39.1376 265.916C38.7464 265.284 38.2809 264.703 37.7512 264.184L39.2173 260.296L36.0302 258.533L33.5283 261.819C32.8075 261.651 32.0689 261.573 31.3291 261.587L29.5762 257.835L25.9748 258.894L26.5166 263.006C25.8878 263.397 25.3097 263.866 24.7955 264.401L20.8913 262.982L19.1384 266.188L22.4052 268.705C22.2388 269.431 22.1585 270.173 22.1662 270.918L18.501 272.721L19.5368 276.264L23.6163 275.719C24.0103 276.351 24.4785 276.932 25.0107 277.451L23.5844 281.339Z" stroke="#F2F2F2" stroke-linecap="round" stroke-linejoin="round"/>
<path opacity="0.3" d="M240.159 70.4678L242.246 64.6401L237.426 61.9948L233.681 66.9167C232.605 66.6614 231.503 66.5402 230.398 66.556L227.777 60.9447L222.518 62.4998L223.315 68.6401C222.38 69.2291 221.518 69.9289 220.749 70.7243L214.956 68.6321L212.327 73.4418L217.219 77.2013C216.966 78.2833 216.846 79.3925 216.861 80.5039L211.283 83.1492L212.837 88.4398L218.932 87.6382C219.521 88.579 220.219 89.4456 221.012 90.2194L218.932 96.0471L223.713 98.6924L227.458 93.7705C228.533 94.025 229.636 94.1462 230.741 94.1312L233.362 99.7425L238.629 98.1874L237.832 92.0471C238.77 91.4621 239.632 90.762 240.398 89.9629L246.198 92.0551L248.82 87.2454L243.935 83.4779C244.182 82.3949 244.299 81.2862 244.286 80.1753L249.863 77.538L248.318 72.2394L242.214 73.041C242.071 72.8085 241.919 72.584 241.768 72.3596M224.072 86.1312C222.683 84.5376 221.92 82.4896 221.924 80.3707C221.929 78.2517 222.7 76.2069 224.095 74.619C225.489 73.031 227.411 72.0087 229.501 71.7434C231.591 71.4781 233.705 71.988 235.448 73.1776C237.191 74.3672 238.443 76.1551 238.97 78.2066C239.498 80.258 239.264 82.4326 238.313 84.3232C237.362 86.2138 235.758 87.6909 233.803 88.4782C231.847 89.2654 229.674 89.3088 227.689 88.6002" stroke="#F2F2F2" stroke-linecap="round" stroke-linejoin="round"/>
<path opacity="0.3" d="M230.891 51.3655C229.604 51.7611 228.219 51.6944 226.975 51.1766C225.731 50.6589 224.704 49.7224 224.07 48.5273C223.436 47.3321 223.235 45.9525 223.5 44.6245C223.766 43.2965 224.482 42.1025 225.525 41.2467C226.569 40.3909 227.876 39.9265 229.222 39.9329C230.569 39.9393 231.871 40.4161 232.907 41.2818C233.943 42.1475 234.647 43.3482 234.9 44.6787C235.153 46.0092 234.939 47.3868 234.294 48.5759C234.134 48.8801 233.945 49.1675 233.728 49.4336M221.402 56.3034L224.629 58.0749L227.131 54.7803C227.85 54.9552 228.589 55.0361 229.33 55.0208L231.091 58.7723L234.612 57.7302L234.071 53.618C234.697 53.2263 235.272 52.7578 235.784 52.2232L239.664 53.626L241.425 50.3795L238.15 47.8624C238.323 47.1432 238.411 46.406 238.413 45.666L242.134 43.9025L241.098 40.3594L237.019 40.9045C236.627 40.2717 236.158 39.6901 235.624 39.173L236.995 35.2452L233.808 33.4816L231.242 36.7762C230.524 36.6079 229.788 36.5298 229.051 36.5438L227.29 32.7922L223.768 33.8343L224.31 37.9386C223.685 38.3356 223.11 38.8065 222.597 39.3414L218.717 37.9386L216.956 41.145L220.231 43.662C220.064 44.3874 219.984 45.1301 219.991 45.8745L216.271 47.638L217.306 51.1811L221.386 50.636C221.78 51.2654 222.245 51.8465 222.772 52.3675L221.402 56.3034Z" stroke="#F2F2F2" stroke-linecap="round" stroke-linejoin="round"/>
<path d="M9.08398 333.499H358.233" stroke="#263238" stroke-linecap="round" stroke-linejoin="round"/>
<path d="M40.5713 54.3798L40.5713 312.642C40.5713 321.717 47.8843 329.074 56.9053 329.074H173.482C182.503 329.074 189.816 321.717 189.816 312.642L189.816 54.3798C189.816 45.3041 182.503 37.9468 173.482 37.9468H56.9053C47.8843 37.9468 40.5713 45.3041 40.5713 54.3798Z" fill="white"/>
<path d="M189.809 53.6342C189.813 50.0258 188.574 46.5274 186.303 43.7344C178.845 47.3737 168.168 55.0931 154.344 71.2776C124.632 106.051 115.533 190.244 80.3547 226.829C65.3035 242.501 51.4714 252.128 40.5635 258.02V313.331C40.5635 317.494 42.2071 321.486 45.1329 324.429C48.0586 327.373 52.0268 329.026 56.1644 329.026H165.578C166.296 328.134 166.999 327.209 167.69 326.253C175.897 314.862 183.434 305.267 189.809 297.611V53.6342Z" fill="#D6D6D6"/>
<path d="M40.5635 53.6341V120.785C52.7144 115.326 67.407 104.969 77.9325 85.3056C88.6173 65.3857 102.314 49.1611 113.318 37.9467H56.1644C52.0282 37.9467 48.0612 39.5992 45.1357 42.5409C42.2102 45.4827 40.5656 49.4728 40.5635 53.6341Z" fill="#D6D6D6"/>
<path d="M52.1014 44.2472C52.1014 46.0267 50.1094 46.652 50.1015 48.0227V48.1189H52.0297V48.7121H49.4561V48.2071C49.4561 46.2993 51.448 45.9306 51.448 44.2712C51.448 43.662 51.2408 43.3414 50.7548 43.3414C50.2688 43.3414 50.0696 43.686 50.0696 44.2071V44.7362H49.4561V44.2552C49.4561 43.3494 49.8704 42.7482 50.7707 42.7482C51.6711 42.7482 52.1014 43.3414 52.1014 44.2472Z" fill="#263238"/>
<path d="M55.3125 44.2311V44.3834C55.3396 44.6362 55.2853 44.891 55.1577 45.1104C55.03 45.3297 54.8357 45.502 54.6033 45.6019C54.8387 45.7 55.0356 45.8731 55.1637 46.0947C55.2918 46.3162 55.3441 46.574 55.3125 46.8283V47.2692C55.3125 48.175 54.8902 48.7682 53.9898 48.7682C53.0894 48.7682 52.6671 48.175 52.6671 47.2692V46.8684H53.2807V47.3173C53.2807 47.8464 53.5038 48.167 53.9739 48.167C54.444 48.167 54.6591 47.8544 54.6591 47.2532V46.7963C54.6591 46.2191 54.4121 45.9386 53.9181 45.9225H53.5595V45.3293H53.942C54.0434 45.3315 54.144 45.3114 54.2369 45.2706C54.3299 45.2298 54.4129 45.1693 54.4803 45.0931C54.5477 45.0169 54.5979 44.9269 54.6274 44.8293C54.6569 44.7317 54.665 44.6288 54.6511 44.5277V44.2632C54.6511 43.654 54.444 43.3414 53.9659 43.3414C53.4878 43.3414 53.2727 43.67 53.2727 44.1991V44.5037H52.6592V44.2311C52.6592 43.3333 53.0815 42.7482 53.9818 42.7482C54.8822 42.7482 55.3125 43.3333 55.3125 44.2311Z" fill="#263238"/>
<path d="M56.5797 44.6802V45.4818H55.9502V44.6802H56.5797ZM56.5797 47.8866V48.6882H55.9502V47.8866H56.5797Z" fill="#263238"/>
<path d="M57.9019 45.2173C57.988 45.0616 58.1157 44.9332 58.2706 44.8468C58.4255 44.7604 58.6014 44.7193 58.7783 44.7283C59.5273 44.7283 59.862 45.2814 59.862 46.1231V47.2694C59.862 48.1752 59.4397 48.7684 58.5393 48.7684C57.6389 48.7684 57.2246 48.1833 57.2246 47.2694V46.8766H57.8381V47.3175C57.8381 47.8466 58.0533 48.1672 58.5234 48.1672C58.9935 48.1672 59.2086 47.8466 59.2086 47.3175V46.1792C59.2086 45.6422 58.9935 45.3215 58.5234 45.3215C58.4381 45.3172 58.3528 45.3303 58.2727 45.3602C58.1926 45.3901 58.1194 45.436 58.0575 45.4953C57.9957 45.5545 57.9464 45.6258 57.9128 45.7048C57.8792 45.7838 57.8619 45.8689 57.862 45.9548V46.0911H57.2485L57.4079 42.8125H59.7265V43.3977H57.9975L57.9019 45.2173Z" fill="#263238"/>
<path d="M63.1205 44.2231V44.3353H62.507V44.183C62.507 43.654 62.2919 43.3414 61.8138 43.3414C61.3358 43.3414 61.0967 43.662 61.0967 44.2953V45.6179C61.1654 45.4234 61.2949 45.2564 61.4659 45.1423C61.6368 45.0281 61.84 44.9728 62.0449 44.9847C62.8417 44.9847 63.1365 45.5378 63.1365 46.3875V47.2692C63.1365 48.175 62.6903 48.7682 61.7979 48.7682C60.9055 48.7682 60.4434 48.175 60.4434 47.2692V44.2712C60.4434 43.3333 60.8657 42.7482 61.7979 42.7482C62.7301 42.7482 63.1205 43.3253 63.1205 44.2231ZM61.1047 46.4676V47.3574C61.1047 47.8865 61.3278 48.2071 61.8059 48.2071C62.2839 48.2071 62.4991 47.8865 62.4991 47.3574V46.4676C62.4991 45.9386 62.276 45.6179 61.8059 45.6179C61.3358 45.6179 61.1047 45.9065 61.1047 46.4676Z" fill="#263238"/>
<path d="M154.758 44.4877H153.101V48.656H154.758V44.4877Z" fill="#263238"/>
<path d="M156.966 43.6541H155.309V48.6561H156.966V43.6541Z" fill="#263238"/>
<path d="M159.181 43.0609H157.523V48.6561H159.181V43.0609Z" fill="#263238"/>
<path d="M161.388 42.0269H159.73V48.6562H161.388V42.0269Z" fill="#263238"/>
<path d="M181.897 48.5438H171.953V42.4596H181.897V48.5438ZM172.503 47.9827H181.347V42.9806H172.503V47.9827Z" fill="#263238"/>
<path d="M178.582 43.5901H173.331V47.3817H178.582V43.5901Z" fill="#263238"/>
<path d="M182.806 44.7603H181.555V46.2031H182.806V44.7603Z" fill="#263238"/>
<path d="M168.296 47.2133C168.228 47.2136 168.162 47.1941 168.105 47.1572C166.081 45.9468 164.75 47.069 164.694 47.1572C164.619 47.2116 164.526 47.236 164.434 47.2256C164.342 47.2152 164.257 47.1708 164.196 47.101C164.134 47.0311 164.101 46.9409 164.102 46.8476C164.102 46.7544 164.138 46.6647 164.2 46.5961C164.272 46.532 165.985 45.057 168.487 46.5961C168.53 46.6209 168.567 46.6539 168.596 46.6933C168.625 46.7327 168.647 46.7777 168.659 46.8255C168.67 46.8733 168.673 46.9231 168.665 46.9718C168.658 47.0205 168.64 47.0672 168.615 47.1091C168.574 47.1513 168.524 47.1828 168.468 47.201C168.413 47.2192 168.353 47.2234 168.296 47.2133Z" fill="#263238"/>
<path d="M169.093 45.9547C169.025 45.955 168.959 45.9355 168.902 45.8986C165.978 44.1511 164.01 45.8424 163.994 45.8585C163.958 45.8973 163.915 45.9282 163.867 45.9491C163.819 45.9701 163.767 45.9806 163.715 45.9801C163.662 45.9797 163.611 45.9681 163.563 45.9462C163.515 45.9244 163.473 45.8927 163.438 45.8532C163.403 45.8137 163.377 45.7674 163.361 45.7171C163.345 45.6669 163.34 45.6138 163.346 45.5614C163.352 45.509 163.369 45.4585 163.395 45.413C163.422 45.3675 163.457 45.3281 163.5 45.2974C163.5 45.2974 165.89 43.2372 169.284 45.2573C169.327 45.282 169.364 45.3151 169.393 45.3545C169.423 45.3939 169.444 45.4389 169.456 45.4867C169.468 45.5345 169.47 45.5843 169.463 45.633C169.455 45.6817 169.438 45.7284 169.412 45.7703C169.38 45.8271 169.334 45.8743 169.278 45.9067C169.222 45.9392 169.158 45.9557 169.093 45.9547Z" fill="#263238"/>
<path d="M169.738 44.5038C169.671 44.5024 169.605 44.483 169.547 44.4476C165.842 42.2272 163.372 44.3194 163.268 44.4476C163.2 44.5167 163.106 44.5554 163.009 44.5554C162.912 44.5554 162.819 44.5167 162.75 44.4476C162.681 44.3771 162.643 44.2821 162.643 44.1831C162.643 44.0841 162.681 43.9891 162.75 43.9186C162.75 43.9186 165.706 41.3695 169.921 43.9186C169.964 43.9427 170.002 43.9752 170.032 44.0143C170.063 44.0534 170.085 44.0983 170.097 44.1462C170.11 44.194 170.113 44.244 170.106 44.293C170.099 44.3421 170.082 44.3892 170.057 44.4316C170.012 44.4656 169.96 44.4896 169.905 44.5021C169.85 44.5145 169.793 44.5151 169.738 44.5038Z" fill="#263238"/>
<path d="M167.189 47.8384C167.189 48.0239 167.134 48.2052 167.032 48.3594C166.929 48.5137 166.784 48.6339 166.613 48.7049C166.443 48.7759 166.255 48.7944 166.075 48.7583C165.894 48.7221 165.728 48.6327 165.597 48.5016C165.467 48.3704 165.378 48.2033 165.342 48.0214C165.306 47.8394 165.325 47.6509 165.395 47.4795C165.466 47.3081 165.585 47.1616 165.739 47.0586C165.892 46.9555 166.072 46.9005 166.256 46.9005C166.504 46.9005 166.741 46.9993 166.916 47.1752C167.09 47.3511 167.189 47.5897 167.189 47.8384Z" fill="#263238"/>
<path d="M193.793 48.2954V57.2414H196.55V82.6523H193.793V88.4239H196.55V113.843H193.793V119.614H196.55V145.065H193.793V318.718C193.793 323.108 192.059 327.318 188.974 330.422C185.888 333.527 181.703 335.271 177.339 335.271H53.0017C50.8413 335.271 48.7022 334.843 46.7064 334.011C44.7106 333.179 42.8973 331.959 41.3701 330.422C39.8429 328.885 38.6316 327.06 37.8057 325.052C36.9797 323.043 36.5551 320.891 36.5561 318.718V102.981H34.5801V77.5701H36.5561V48.2954C36.5561 43.9074 38.2887 39.699 41.3729 36.5962C44.457 33.4934 48.64 31.7502 53.0017 31.7502H177.371C181.728 31.7587 185.904 33.5054 188.982 36.607C192.061 39.7087 193.791 43.9122 193.793 48.2954ZM150.767 37.9467L145.986 45.2092C145.268 46.283 144.299 47.1627 143.164 47.7708C142.029 48.3789 140.762 48.6967 139.476 48.6962H90.9205C89.6356 48.6961 88.3704 48.378 87.2366 47.7699C86.1028 47.1618 85.135 46.2824 84.4187 45.2092L79.5584 37.9467H57.0174C52.6564 37.9467 48.4738 39.6885 45.3887 42.7893C42.3035 45.8902 40.5681 50.0964 40.5639 54.4838V312.521C40.566 316.91 42.3004 321.118 45.3858 324.221C48.4713 327.323 52.6551 329.066 57.0174 329.066H173.347C175.508 329.068 177.647 328.642 179.644 327.812C181.641 326.982 183.455 325.765 184.984 324.229C186.512 322.693 187.725 320.869 188.553 318.862C189.381 316.855 189.808 314.703 189.809 312.529V54.4838C189.809 50.0958 188.076 45.8874 184.992 42.7846C181.908 39.6818 177.725 37.9387 173.363 37.9387L150.767 37.9467Z" fill="#263238"/>
<path d="M176.901 119.414H178.041C179.15 119.414 180.214 119.857 180.999 120.647C181.783 121.436 182.224 122.506 182.224 123.622V204.04C182.224 210.316 184.702 216.336 189.113 220.775C193.523 225.214 199.506 227.709 205.745 227.711C211.986 227.711 217.971 225.217 222.385 220.778C226.799 216.339 229.28 210.319 229.282 204.04V174.509" stroke="#263238" stroke-linecap="round" stroke-linejoin="round"/>
<path d="M173.411 119.398H176.901" stroke="#263238" stroke-width="3" stroke-linecap="round" stroke-linejoin="round"/>
<path d="M90.2588 168.721C90.9062 168.721 91.5271 168.979 91.9857 169.439C92.4442 169.899 92.7028 170.523 92.7049 171.174V204.12C92.7039 212.973 94.4361 221.739 97.8028 229.918C101.169 238.097 106.105 245.529 112.326 251.789C118.548 258.049 125.935 263.015 134.064 266.403C142.194 269.791 150.907 271.535 159.706 271.535V271.535C176.597 271.535 192.796 264.785 204.74 252.769C216.683 240.753 223.393 224.456 223.393 207.463V174.725" stroke="#263238" stroke-linecap="round" stroke-linejoin="round"/>
<path d="M86.4111 168.721H90.2596" stroke="#263238" stroke-width="3" stroke-linecap="round" stroke-linejoin="round"/>
<path d="M178.94 220.417C180.063 220.417 181.14 220.865 181.935 221.663C182.73 222.461 183.177 223.544 183.179 224.673V263.15C183.179 270.166 185.95 276.895 190.881 281.855C195.812 286.816 202.5 289.603 209.473 289.603V289.603C216.447 289.603 223.135 286.816 228.066 281.855C232.997 276.895 235.767 270.166 235.767 263.15V175.623" stroke="#263238" stroke-linecap="round" stroke-linejoin="round"/>
<path d="M173.978 220.425H178.941" stroke="#263238" stroke-width="3" stroke-linecap="round" stroke-linejoin="round"/>
<path d="M169.635 101.971H143.413C141.151 101.971 139.317 103.816 139.317 106.091V132.472C139.317 134.748 141.151 136.592 143.413 136.592H169.635C171.897 136.592 173.73 134.748 173.73 132.472V106.091C173.73 103.816 171.897 101.971 169.635 101.971Z" fill="#DE834D" stroke="#263238" stroke-linecap="round" stroke-linejoin="round"/>
<path d="M167.619 118.516V115.895L164.99 115.446C164.768 114.373 164.349 113.351 163.755 112.432L165.349 110.228L163.5 108.368L161.317 109.971C160.41 109.373 159.399 108.951 158.337 108.729L157.891 106.035H155.285L154.839 108.729C153.788 108.947 152.788 109.363 151.891 109.955L149.652 108.352L147.811 110.212L149.405 112.448C148.816 113.345 148.4 114.346 148.178 115.398L145.461 115.855V118.476L148.162 118.933C148.373 119.959 148.77 120.937 149.333 121.819L147.74 124.079L149.58 125.931L151.803 124.328C152.695 124.931 153.693 125.358 154.743 125.586L155.19 128.288H157.795L158.241 125.61C159.307 125.403 160.321 124.99 161.229 124.392L163.428 125.995L165.277 124.143L163.723 121.955C164.33 121.041 164.758 120.017 164.982 118.941L167.619 118.516ZM156.56 123.598C155.299 123.598 154.067 123.222 153.019 122.518C151.971 121.813 151.154 120.811 150.671 119.64C150.189 118.468 150.062 117.178 150.308 115.934C150.554 114.69 151.161 113.548 152.053 112.651C152.944 111.754 154.08 111.143 155.317 110.896C156.553 110.648 157.835 110.775 158.999 111.261C160.164 111.746 161.16 112.568 161.86 113.623C162.561 114.677 162.934 115.917 162.934 117.186C162.934 118.886 162.263 120.517 161.067 121.72C159.872 122.923 158.251 123.598 156.56 123.598Z" fill="white" stroke="#263238" stroke-linecap="round" stroke-linejoin="round"/>
<path d="M166.846 131.029H145.356V132.801H166.846V131.029Z" fill="white" stroke="#263238" stroke-linecap="round" stroke-linejoin="round"/>
<path d="M156.105 131.029H145.356V132.801H156.105V131.029Z" fill="#263238" stroke="#263238" stroke-linecap="round" stroke-linejoin="round"/>
<path d="M125.644 101.995H99.9162C97.5576 101.995 95.6455 103.919 95.6455 106.292V132.176C95.6455 134.549 97.5576 136.472 99.9162 136.472H125.644C128.003 136.472 129.915 134.549 129.915 132.176V106.292C129.915 103.919 128.003 101.995 125.644 101.995Z" fill="white" stroke="#263238" stroke-linecap="round" stroke-linejoin="round"/>
<path d="M115.481 130.799C121.83 129.3 125.77 122.908 124.281 116.52C122.792 110.132 116.437 106.169 110.088 107.667C103.739 109.165 99.799 115.558 101.288 121.945C102.777 128.333 109.132 132.297 115.481 130.799Z" fill="#263238" stroke="#263238" stroke-linecap="round" stroke-linejoin="round"/>
<path d="M109.055 124.095L112.776 119.238V110.532" stroke="white" stroke-linecap="round" stroke-linejoin="round"/>
<path d="M81.9012 101.995H56.1731C53.8144 101.995 51.9023 103.918 51.9023 106.291V132.175C51.9023 134.548 53.8144 136.472 56.1731 136.472H81.9012C84.2598 136.472 86.1719 134.548 86.1719 132.175V106.291C86.1719 103.918 84.2598 101.995 81.9012 101.995Z" fill="white" stroke="#263238" stroke-linecap="round" stroke-linejoin="round"/>
<path d="M65.3125 124.095L69.0414 119.238V110.532" stroke="white" stroke-linecap="round" stroke-linejoin="round"/>
<path d="M78.6344 118.46L63.0732 109.418V127.494L78.6344 118.46Z" fill="#263238" stroke="#263238" stroke-linecap="round" stroke-linejoin="round"/>
<path d="M169.635 152.649H143.413C141.151 152.649 139.317 154.493 139.317 156.769V183.15C139.317 185.425 141.151 187.27 143.413 187.27H169.635C171.897 187.27 173.73 185.425 173.73 183.15V156.769C173.73 154.493 171.897 152.649 169.635 152.649Z" fill="white" stroke="#263238" stroke-linecap="round" stroke-linejoin="round"/>
<path d="M156.026 159.687C149.906 159.687 144.942 163.695 144.942 168.601C144.942 171.807 147.022 174.573 150.137 176.152L148.265 180.865L154.193 177.386C154.8 177.47 155.413 177.513 156.026 177.515C162.137 177.515 167.101 173.506 167.101 168.601C167.101 163.695 162.137 159.687 156.026 159.687Z" fill="#263238" stroke="#263238" stroke-linecap="round" stroke-linejoin="round"/>
<path d="M169.635 203.326H143.413C141.151 203.326 139.317 205.171 139.317 207.446V233.827C139.317 236.103 141.151 237.948 143.413 237.948H169.635C171.897 237.948 173.73 236.103 173.73 233.827V207.446C173.73 205.171 171.897 203.326 169.635 203.326Z" fill="#DE834D" stroke="#263238" stroke-linecap="round" stroke-linejoin="round"/>
<path d="M167.619 219.871V217.25L164.99 216.809C164.769 215.733 164.35 214.708 163.755 213.787L165.349 211.583L163.5 209.731L161.317 211.334C160.412 210.73 159.4 210.305 158.337 210.084L157.891 207.39H155.285L154.839 210.084C153.788 210.305 152.788 210.724 151.891 211.318L149.652 209.715L147.811 211.567L149.405 213.811C148.815 214.705 148.398 215.703 148.178 216.753L145.461 217.21V219.831L148.162 220.288C148.372 221.34 148.781 222.341 149.365 223.238L147.772 225.499L149.612 227.358L151.835 225.755C152.729 226.352 153.726 226.777 154.775 227.006L155.222 229.715H157.827L158.273 227.038C159.336 226.824 160.35 226.41 161.261 225.819L163.46 227.422L165.309 225.563L163.755 223.374C164.361 222.462 164.788 221.442 165.014 220.368L167.619 219.871ZM156.56 224.953C155.299 224.953 154.067 224.577 153.019 223.873C151.971 223.168 151.154 222.167 150.671 220.995C150.189 219.823 150.062 218.533 150.308 217.29C150.554 216.046 151.161 214.903 152.053 214.006C152.944 213.109 154.08 212.498 155.317 212.251C156.553 212.004 157.835 212.131 158.999 212.616C160.164 213.101 161.16 213.923 161.86 214.978C162.561 216.032 162.934 217.272 162.934 218.541C162.934 220.241 162.263 221.873 161.067 223.075C159.872 224.278 158.251 224.953 156.56 224.953Z" fill="white" stroke="#263238" stroke-linecap="round" stroke-linejoin="round"/>
<path d="M166.846 232.384H145.356V234.156H166.846V232.384Z" fill="white" stroke="#263238" stroke-linecap="round" stroke-linejoin="round"/>
<path d="M148.91 232.384H145.356V234.156H148.91V232.384Z" fill="#263238" stroke="#263238" stroke-linecap="round" stroke-linejoin="round"/>
<path d="M81.9012 152.681H56.1731C53.8144 152.681 51.9023 154.604 51.9023 156.977V182.861C51.9023 185.234 53.8144 187.158 56.1731 187.158H81.9012C84.2598 187.158 86.1719 185.234 86.1719 182.861V156.977C86.1719 154.604 84.2598 152.681 81.9012 152.681Z" fill="#DE834D" stroke="#263238" stroke-linecap="round" stroke-linejoin="round"/>
<path d="M80.387 169.194V166.573L77.7497 166.132C77.5356 165.054 77.1162 164.027 76.5146 163.11L78.1082 160.905L76.2676 159.054L74.0845 160.657C73.1773 160.058 72.1664 159.637 71.1045 159.414L70.6583 156.721H68.0528L67.6066 159.414C66.5542 159.635 65.5517 160.051 64.6506 160.641L62.4196 159.037L60.579 160.897L62.1726 163.142C61.5879 164.038 61.1745 165.035 60.9535 166.084L58.2285 166.541V169.114L60.9296 169.571C61.1449 170.621 61.553 171.621 62.1327 172.521L60.5392 174.781L62.324 176.641L64.539 175.038C65.4338 175.634 66.4307 176.058 67.4791 176.288L67.9333 178.997H70.5388L70.985 176.32C72.0491 176.105 73.0631 175.689 73.9729 175.094L76.172 176.697L78.0126 174.845L76.4589 172.657C77.0692 171.744 77.4968 170.72 77.7178 169.643L80.387 169.194ZM69.3197 174.276C68.059 174.276 66.8266 173.9 65.7784 173.195C64.7301 172.491 63.9131 171.489 63.4307 170.317C62.9482 169.145 62.822 167.856 63.0679 166.612C63.3139 165.368 63.921 164.225 64.8124 163.329C65.7039 162.432 66.8397 161.821 68.0762 161.574C69.3126 161.326 70.5943 161.453 71.759 161.938C72.9238 162.424 73.9193 163.246 74.6197 164.3C75.3201 165.355 75.694 166.595 75.694 167.863C75.694 169.564 75.0224 171.195 73.827 172.398C72.6316 173.6 71.0103 174.276 69.3197 174.276Z" fill="white" stroke="#263238" stroke-linecap="round" stroke-linejoin="round"/>
<path d="M79.6142 181.707H58.125V183.478H79.6142V181.707Z" fill="white" stroke="#263238" stroke-linecap="round" stroke-linejoin="round"/>
<path d="M77.5505 181.707H58.125V183.478H77.5505V181.707Z" fill="#263238" stroke="#263238" stroke-linecap="round" stroke-linejoin="round"/>
<path d="M81.9012 203.358H56.1731C53.8144 203.358 51.9023 205.282 51.9023 207.655V233.539C51.9023 235.912 53.8144 237.835 56.1731 237.835H81.9012C84.2598 237.835 86.1719 235.912 86.1719 233.539V207.655C86.1719 205.282 84.2598 203.358 81.9012 203.358Z" fill="white" stroke="#263238" stroke-linecap="round" stroke-linejoin="round"/>
<path d="M65.3125 225.459L69.0414 220.593V211.887" stroke="white" stroke-linecap="round" stroke-linejoin="round"/>
<path d="M80.587 213.138H57.4883V228.048H80.587V213.138Z" fill="#263238" stroke="#263238" stroke-linecap="round" stroke-linejoin="round"/>
<path d="M57.4883 213.138L68.8504 222.821L80.4276 213.274" stroke="white" stroke-linecap="round" stroke-linejoin="round"/>
<path d="M57.4883 228.048L65.7668 220.497" stroke="white" stroke-linecap="round" stroke-linejoin="round"/>
<path d="M80.5858 228.048L71.9248 220.497" stroke="white" stroke-linecap="round" stroke-linejoin="round"/>
<path d="M323.676 217.058L332.799 305.066" stroke="#263238" stroke-width="2" stroke-miterlimit="10"/>
<path d="M331.333 288.224L327.189 283.824" stroke="#263238" stroke-width="2" stroke-miterlimit="10"/>
<path d="M328.449 285.138C328.441 284.466 328.289 283.803 328.005 283.195C327.72 282.586 327.309 282.046 326.799 281.611C325.739 280.657 320.146 278.293 319.628 280.273C319.039 282.421 324.759 286.653 328.449 285.138Z" fill="#DE834D" stroke="#263238" stroke-miterlimit="10"/>
<path d="M328.448 285.138L323.126 281.804" stroke="#263238" stroke-width="0.5" stroke-miterlimit="10"/>
<path d="M332.368 298.229L328.232 293.836" stroke="#263238" stroke-width="2" stroke-miterlimit="10"/>
<path d="M329.484 295.15C329.477 294.477 329.327 293.814 329.044 293.204C328.761 292.595 328.351 292.053 327.843 291.615C326.775 290.661 321.19 288.297 320.672 290.277C320.082 292.433 325.803 296.665 329.484 295.15Z" fill="#DE834D" stroke="#263238" stroke-miterlimit="10"/>
<path d="M329.484 295.15L324.161 291.816" stroke="#263238" stroke-width="0.5" stroke-miterlimit="10"/>
<path d="M328.8 263.799L324.656 259.399" stroke="#263238" stroke-width="2" stroke-miterlimit="10"/>
<path d="M325.914 260.721C325.907 260.048 325.755 259.384 325.471 258.774C325.186 258.164 324.775 257.623 324.265 257.186C323.205 256.232 317.612 253.868 317.094 255.848C316.496 258.004 322.225 262.228 325.914 260.721Z" fill="#DE834D" stroke="#263238" stroke-miterlimit="10"/>
<path d="M325.914 260.721L320.592 257.379" stroke="#263238" stroke-width="0.5" stroke-miterlimit="10"/>
<path d="M329.835 273.804L325.7 269.411" stroke="#263238" stroke-width="2" stroke-miterlimit="10"/>
<path d="M326.95 270.725C326.943 270.054 326.793 269.391 326.51 268.783C326.227 268.174 325.817 267.634 325.309 267.198C324.241 266.236 318.656 263.872 318.138 265.852C317.548 268.008 323.269 272.24 326.95 270.725Z" fill="#DE834D" stroke="#263238" stroke-miterlimit="10"/>
<path d="M326.95 270.725L321.628 267.391" stroke="#263238" stroke-width="0.5" stroke-miterlimit="10"/>
<path d="M327.11 247.543L322.975 243.142" stroke="#263238" stroke-width="2" stroke-miterlimit="10"/>
<path d="M324.225 244.465C324.217 243.793 324.066 243.131 323.783 242.523C323.5 241.914 323.091 241.374 322.583 240.938C321.516 239.984 315.93 237.611 315.412 239.599C314.823 241.739 320.544 245.972 324.225 244.465Z" fill="#DE834D" stroke="#263238" stroke-miterlimit="10"/>
<path d="M324.226 244.457L318.903 241.122" stroke="#263238" stroke-width="0.5" stroke-miterlimit="10"/>
<path d="M325.413 231.206L321.277 226.813" stroke="#263238" stroke-width="2" stroke-miterlimit="10"/>
<path d="M322.536 228.128C322.529 227.455 322.378 226.792 322.093 226.184C321.808 225.575 321.397 225.035 320.887 224.601C319.827 223.639 314.234 221.274 313.716 223.254C313.126 225.41 318.887 229.643 322.536 228.128Z" fill="#DE834D" stroke="#263238" stroke-miterlimit="10"/>
<path d="M322.536 228.128L317.214 224.793" stroke="#263238" stroke-width="0.5" stroke-miterlimit="10"/>
<path d="M330.632 282.301L333.779 277.138" stroke="#263238" stroke-width="2" stroke-miterlimit="10"/>
<path d="M332.822 278.685C332.698 278.031 332.712 277.358 332.864 276.71C333.017 276.062 333.304 275.454 333.707 274.926C334.551 273.771 339.539 270.3 340.464 272.128C341.468 274.076 336.735 279.407 332.822 278.685Z" fill="#DE834D" stroke="#263238" stroke-miterlimit="10"/>
<path d="M332.823 278.685L337.612 274.076" stroke="#263238" stroke-width="0.5" stroke-miterlimit="10"/>
<path d="M327.898 255.96L331.046 250.797" stroke="#263238" stroke-width="2" stroke-miterlimit="10"/>
<path d="M330.09 252.353C329.959 251.692 329.97 251.012 330.122 250.356C330.275 249.701 330.565 249.086 330.974 248.553C331.819 247.399 336.807 243.92 337.731 245.747C338.735 247.735 334.026 253.066 330.09 252.353Z" fill="#DE834D" stroke="#263238" stroke-miterlimit="10"/>
<path d="M330.089 252.353L334.878 247.743" stroke="#263238" stroke-width="0.5" stroke-miterlimit="10"/>
<path d="M326.703 244.385L329.85 239.222" stroke="#263238" stroke-width="2" stroke-miterlimit="10"/>
<path d="M328.887 240.777C328.758 240.116 328.771 239.436 328.925 238.78C329.079 238.125 329.37 237.511 329.779 236.978C330.616 235.823 335.603 232.344 336.528 234.172C337.54 236.16 332.807 241.491 328.887 240.777Z" fill="#DE834D" stroke="#263238" stroke-miterlimit="10"/>
<path d="M328.887 240.777L333.683 236.168" stroke="#263238" stroke-width="0.5" stroke-miterlimit="10"/>
<path d="M324.942 227.415L328.09 222.252" stroke="#263238" stroke-width="2" stroke-miterlimit="10"/>
<path d="M327.126 223.807C326.997 223.147 327.01 222.466 327.164 221.811C327.318 221.155 327.609 220.541 328.018 220.008C328.855 218.853 333.843 215.374 334.767 217.202C335.779 219.19 331.046 224.521 327.126 223.807Z" fill="#DE834D" stroke="#263238" stroke-miterlimit="10"/>
<path d="M327.126 223.807L331.923 219.198" stroke="#263238" stroke-width="0.5" stroke-miterlimit="10"/>
<path d="M323.596 216.569C323.465 215.909 323.477 215.228 323.629 214.573C323.782 213.917 324.072 213.302 324.481 212.769C325.325 211.615 330.313 208.136 331.237 209.964C332.241 211.951 327.508 217.282 323.596 216.569Z" fill="#DE834D" stroke="#263238" stroke-miterlimit="10"/>
<path d="M323.596 216.569L328.384 211.959" stroke="#263238" stroke-width="0.5" stroke-miterlimit="10"/>
<path d="M323.874 216.769C323.207 216.828 322.535 216.743 321.903 216.521C321.271 216.298 320.694 215.943 320.209 215.479C319.157 214.517 316.225 209.162 318.145 208.432C320.217 207.631 324.989 212.921 323.874 216.769Z" fill="#DE834D" stroke="#263238" stroke-miterlimit="10"/>
<path d="M323.875 216.769L319.819 211.487" stroke="#263238" stroke-width="0.5" stroke-miterlimit="10"/>
<path d="M347.754 229.178L338.671 317.186" stroke="#263238" stroke-width="2" stroke-miterlimit="10"/>
<path d="M340.679 300.401L337.531 295.239" stroke="#263238" stroke-width="2" stroke-miterlimit="10"/>
<path d="M338.488 296.794C338.619 296.133 338.608 295.453 338.455 294.797C338.303 294.142 338.012 293.527 337.603 292.994C336.759 291.84 331.771 288.369 330.846 290.196C329.843 292.184 334.575 297.507 338.488 296.794Z" fill="#DE834D" stroke="#263238" stroke-miterlimit="10"/>
<path d="M338.488 296.794L333.962 292.425" stroke="#263238" stroke-width="0.5" stroke-miterlimit="10"/>
<path d="M343.196 275.976L340.049 270.813" stroke="#263238" stroke-width="2" stroke-miterlimit="10"/>
<path d="M341.014 272.369C341.143 271.708 341.13 271.027 340.976 270.372C340.822 269.717 340.531 269.102 340.122 268.569C339.277 267.415 334.289 263.944 333.365 265.771C332.361 267.759 337.094 273.082 341.014 272.369Z" fill="#DE834D" stroke="#263238" stroke-miterlimit="10"/>
<path d="M341.014 272.369L336.488 268" stroke="#263238" stroke-width="0.5" stroke-miterlimit="10"/>
<path d="M342.169 285.988L339.014 280.826" stroke="#263238" stroke-width="2" stroke-miterlimit="10"/>
<path d="M339.977 282.373C340.105 281.713 340.092 281.034 339.938 280.38C339.784 279.726 339.493 279.113 339.085 278.581C338.24 277.427 333.26 273.948 332.336 275.784C331.324 277.772 336.057 283.094 339.977 282.373Z" fill="#DE834D" stroke="#263238" stroke-miterlimit="10"/>
<path d="M339.977 282.373L335.451 278.012" stroke="#263238" stroke-width="0.5" stroke-miterlimit="10"/>
<path d="M344.877 259.719L341.722 254.557" stroke="#263238" stroke-width="2" stroke-miterlimit="10"/>
<path d="M342.687 256.104C342.817 255.445 342.805 254.765 342.651 254.11C342.497 253.456 342.205 252.843 341.794 252.312C340.95 251.158 335.97 247.679 335.046 249.507C334.026 251.503 338.806 256.825 342.687 256.104Z" fill="#DE834D" stroke="#263238" stroke-miterlimit="10"/>
<path d="M342.687 256.104L338.161 251.735" stroke="#263238" stroke-width="0.5" stroke-miterlimit="10"/>
<path d="M346.558 243.391L343.411 238.228" stroke="#263238" stroke-width="2" stroke-miterlimit="10"/>
<path d="M344.384 239.775C344.515 239.115 344.504 238.434 344.351 237.779C344.199 237.124 343.908 236.509 343.5 235.976C342.655 234.821 337.667 231.35 336.743 233.178C335.723 235.166 340.456 240.497 344.384 239.775Z" fill="#DE834D" stroke="#263238" stroke-miterlimit="10"/>
<path d="M344.368 239.775L339.842 235.407" stroke="#263238" stroke-width="0.5" stroke-miterlimit="10"/>
<path d="M341.213 294.461L345.348 290.06" stroke="#263238" stroke-width="2" stroke-miterlimit="10"/>
<path d="M344.089 291.383C344.097 290.709 344.248 290.045 344.533 289.435C344.817 288.826 345.228 288.284 345.738 287.848C346.798 286.894 352.383 284.521 352.909 286.509C353.499 288.657 347.778 292.898 344.089 291.383Z" fill="#DE834D" stroke="#263238" stroke-miterlimit="10"/>
<path d="M344.089 291.383L349.722 287.864" stroke="#263238" stroke-width="0.5" stroke-miterlimit="10"/>
<path d="M343.93 268.12L348.065 263.719" stroke="#263238" stroke-width="2" stroke-miterlimit="10"/>
<path d="M346.774 265.042C346.782 264.368 346.934 263.704 347.218 263.095C347.503 262.485 347.914 261.943 348.424 261.507C349.483 260.553 355.069 258.18 355.595 260.168C356.216 262.317 350.495 266.557 346.774 265.042Z" fill="#DE834D" stroke="#263238" stroke-miterlimit="10"/>
<path d="M346.806 265.042L352.439 261.523" stroke="#263238" stroke-width="0.5" stroke-miterlimit="10"/>
<path d="M345.125 256.545L349.26 252.144" stroke="#263238" stroke-width="2" stroke-miterlimit="10"/>
<path d="M348.002 253.467C348.009 252.794 348.16 252.13 348.443 251.521C348.726 250.911 349.135 250.369 349.643 249.932C350.711 248.978 356.296 246.605 356.814 248.593C357.412 250.741 351.691 254.982 348.002 253.467Z" fill="#DE834D" stroke="#263238" stroke-miterlimit="10"/>
<path d="M348.002 253.467L353.635 249.948" stroke="#263238" stroke-width="0.5" stroke-miterlimit="10"/>
<path d="M346.87 239.575L351.005 235.174" stroke="#263238" stroke-width="2" stroke-miterlimit="10"/>
<path d="M349.754 236.497C349.761 235.824 349.912 235.16 350.195 234.551C350.478 233.941 350.887 233.399 351.395 232.962C352.455 232.008 358.048 229.635 358.566 231.623C359.156 233.771 353.435 238.052 349.754 236.497Z" fill="#DE834D" stroke="#263238" stroke-miterlimit="10"/>
<path d="M349.754 236.497L355.387 232.978" stroke="#263238" stroke-width="0.5" stroke-miterlimit="10"/>
<path d="M347.778 228.681C347.786 228.008 347.937 227.345 348.22 226.735C348.503 226.126 348.912 225.584 349.42 225.146C350.479 224.192 356.073 221.827 356.591 223.807C357.18 225.964 351.459 230.196 347.778 228.681Z" fill="#DE834D" stroke="#263238" stroke-miterlimit="10"/>
<path d="M347.778 228.681L353.412 225.162" stroke="#263238" stroke-width="0.5" stroke-miterlimit="10"/>
<path d="M348.009 228.938C347.345 228.858 346.704 228.636 346.131 228.288C345.558 227.94 345.066 227.473 344.687 226.918C343.85 225.755 342.097 219.912 344.113 219.591C346.304 219.238 349.89 225.403 348.009 228.938Z" fill="#DE834D" stroke="#263238" stroke-miterlimit="10"/>
<path d="M348.009 228.938L345.116 222.934" stroke="#263238" stroke-width="0.5" stroke-miterlimit="10"/>
<path d="M337.349 193.338V304.633" stroke="#263238" stroke-width="2" stroke-miterlimit="10"/>
<path d="M337.436 287.904L333.771 283.094" stroke="#263238" stroke-width="2" stroke-miterlimit="10"/>
<path d="M334.887 284.545C334.948 283.875 334.866 283.199 334.646 282.563C334.426 281.927 334.074 281.345 333.612 280.858C332.656 279.8 327.341 276.85 326.608 278.774C325.811 280.85 331.07 285.659 334.887 284.545Z" fill="#DE834D" stroke="#263238" stroke-miterlimit="10"/>
<path d="M334.886 284.537L329.938 280.665" stroke="#263238" stroke-width="0.5" stroke-miterlimit="10"/>
<path d="M337.436 266.982L333.771 262.18" stroke="#263238" stroke-width="2" stroke-miterlimit="10"/>
<path d="M334.887 263.623C334.948 262.953 334.866 262.277 334.646 261.641C334.426 261.005 334.074 260.423 333.612 259.936C332.656 258.878 327.341 255.928 326.608 257.852C325.811 259.936 331.07 264.745 334.887 263.623Z" fill="#DE834D" stroke="#263238" stroke-miterlimit="10"/>
<path d="M334.886 263.623L329.938 259.743" stroke="#263238" stroke-width="0.5" stroke-miterlimit="10"/>
<path d="M337.436 242.429L333.771 237.619" stroke="#263238" stroke-width="2" stroke-miterlimit="10"/>
<path d="M334.887 239.062C334.948 238.392 334.866 237.718 334.646 237.083C334.427 236.448 334.074 235.868 333.612 235.382C332.656 234.316 327.341 231.374 326.608 233.298C325.811 235.382 331.07 240.184 334.887 239.062Z" fill="#DE834D" stroke="#263238" stroke-miterlimit="10"/>
<path d="M334.886 239.062L329.938 235.19" stroke="#263238" stroke-width="0.5" stroke-miterlimit="10"/>
<path d="M337.436 226.084L333.771 221.274" stroke="#263238" stroke-width="2" stroke-miterlimit="10"/>
<path d="M334.887 222.717C334.948 222.047 334.866 221.371 334.646 220.735C334.426 220.099 334.074 219.517 333.612 219.03C332.656 217.972 327.341 215.022 326.608 216.953C325.811 219.03 331.07 223.839 334.887 222.717Z" fill="#DE834D" stroke="#263238" stroke-miterlimit="10"/>
<path d="M334.886 222.717L329.938 218.845" stroke="#263238" stroke-width="0.5" stroke-miterlimit="10"/>
<path d="M337.436 209.667L333.771 204.857" stroke="#263238" stroke-width="2" stroke-miterlimit="10"/>
<path d="M334.887 206.3C334.948 205.63 334.866 204.954 334.646 204.318C334.426 203.682 334.074 203.1 333.612 202.613C332.656 201.555 327.341 198.605 326.608 200.529C325.811 202.613 331.07 207.422 334.887 206.3Z" fill="#DE834D" stroke="#263238" stroke-miterlimit="10"/>
<path d="M334.886 206.3L329.938 202.42" stroke="#263238" stroke-width="0.5" stroke-miterlimit="10"/>
<path d="M337.355 294.285L341.021 289.483" stroke="#263238" stroke-width="2" stroke-miterlimit="10"/>
<path d="M339.906 290.958C339.845 290.287 339.927 289.611 340.147 288.975C340.367 288.339 340.72 287.758 341.181 287.271C342.137 286.212 347.452 283.262 348.185 285.186C348.982 287.238 343.723 292.048 339.906 290.958Z" fill="#DE834D" stroke="#263238" stroke-miterlimit="10"/>
<path d="M339.905 290.926L345.148 286.838" stroke="#263238" stroke-width="0.5" stroke-miterlimit="10"/>
<path d="M337.355 261.026L341.021 256.216" stroke="#263238" stroke-width="2" stroke-miterlimit="10"/>
<path d="M339.906 257.659C339.845 256.989 339.927 256.313 340.147 255.677C340.367 255.041 340.72 254.459 341.181 253.972C342.137 252.914 347.452 249.964 348.185 251.888C348.982 253.972 343.723 258.781 339.906 257.659Z" fill="#DE834D" stroke="#263238" stroke-miterlimit="10"/>
<path d="M339.905 257.659L345.148 253.571" stroke="#263238" stroke-width="0.5" stroke-miterlimit="10"/>
<path d="M337.355 244.601L341.021 239.799" stroke="#263238" stroke-width="2" stroke-miterlimit="10"/>
<path d="M339.906 241.258C339.845 240.588 339.927 239.912 340.147 239.276C340.367 238.64 340.72 238.059 341.181 237.571C342.137 236.513 347.452 233.563 348.185 235.487C348.982 237.555 343.723 242.365 339.906 241.258Z" fill="#DE834D" stroke="#263238" stroke-miterlimit="10"/>
<path d="M339.905 241.242L345.148 237.154" stroke="#263238" stroke-width="0.5" stroke-miterlimit="10"/>
<path d="M337.355 222.901L341.021 218.1" stroke="#263238" stroke-width="2" stroke-miterlimit="10"/>
<path d="M339.906 219.535C339.845 218.865 339.927 218.191 340.147 217.556C340.367 216.921 340.72 216.341 341.181 215.855C342.137 214.797 347.452 211.847 348.185 213.771C348.982 215.855 343.723 220.657 339.906 219.535Z" fill="#DE834D" stroke="#263238" stroke-miterlimit="10"/>
<path d="M339.905 219.535L345.148 215.455" stroke="#263238" stroke-width="0.5" stroke-miterlimit="10"/>
<path d="M337.355 205.843L341.021 201.034" stroke="#263238" stroke-width="2" stroke-miterlimit="10"/>
<path d="M339.906 202.477C339.845 201.802 339.928 201.123 340.151 200.484C340.374 199.845 340.731 199.261 341.197 198.773C342.153 197.715 347.468 194.765 348.201 196.697C348.982 198.773 343.723 203.583 339.906 202.477Z" fill="#DE834D" stroke="#263238" stroke-miterlimit="10"/>
<path d="M339.905 202.477L345.148 198.396" stroke="#263238" stroke-width="0.5" stroke-miterlimit="10"/>
<path d="M337.133 194.909C337.072 194.24 337.154 193.565 337.373 192.93C337.593 192.296 337.946 191.716 338.408 191.23C339.364 190.164 344.687 187.222 345.42 189.146C346.208 191.23 340.958 196.032 337.133 194.909Z" fill="#DE834D" stroke="#263238" stroke-miterlimit="10"/>
<path d="M337.134 194.909L342.377 190.829" stroke="#263238" stroke-width="0.5" stroke-miterlimit="10"/>
<path d="M337.388 195.134C336.72 195.126 336.061 194.973 335.456 194.687C334.851 194.401 334.314 193.987 333.882 193.474C332.934 192.408 330.591 186.781 332.559 186.26C334.703 185.667 338.902 191.43 337.388 195.134Z" fill="#DE834D" stroke="#263238" stroke-miterlimit="10"/>
<path d="M337.388 195.134L333.906 189.467" stroke="#263238" stroke-width="0.5" stroke-miterlimit="10"/>
<path d="M341.898 333.499H330.186L328.72 303.736H343.365L341.898 333.499Z" fill="#263238" stroke="#263238" stroke-miterlimit="10"/>
<path d="M313.59 117.234C308.769 113.153 309.701 106.652 309.701 106.652C309.701 106.652 290.005 124.64 288.985 130.508C287.965 136.376 302.682 157.554 304.921 160.873C305.204 161.277 305.574 161.611 306.004 161.851C305.295 163.603 304.948 165.483 304.984 167.374C305.04 173.883 312.347 171.575 315.295 169.603C316.143 169.003 316.802 168.172 317.195 167.207C317.587 166.243 317.697 165.185 317.51 164.16C317.51 164.16 313.821 165.643 313.821 163.919C313.821 162.196 317.295 159.494 317.295 159.494L317.207 159.43C317.923 158.887 318.578 158.266 319.159 157.578C322.96 152.985 316.618 147.879 315.351 145.073C314.084 142.268 316.363 139.719 320.928 135.887C325.494 132.055 318.41 121.322 313.59 117.234Z" fill="#263238" stroke="#263238" stroke-linecap="round" stroke-linejoin="round"/>
<path d="M241.337 156.745C241.44 158.98 241.376 161.22 241.145 163.446C241.07 164.771 241.277 166.096 241.753 167.333C242.228 168.571 242.961 169.691 243.902 170.621C244.954 171.422 250.181 173.105 250.181 173.105L251.041 168.512L250.245 166.604L251.288 159.614C250.836 158.322 250.265 157.074 249.583 155.887C248.627 154.356 246.062 152.729 245.87 152.44C245.679 152.151 242.54 152.825 242.253 152.825C241.671 152.972 241.101 153.162 240.548 153.394L241.337 156.745Z" fill="white" stroke="#263238" stroke-linecap="round" stroke-linejoin="round"/>
<path d="M239.72 152.071C239.72 152.071 238.086 152.208 237.887 152.873C237.688 153.538 238.373 157.29 238.779 157.634C239.186 157.979 240.293 157.634 240.301 156.111C240.309 154.588 240.15 152.672 239.72 152.071Z" fill="white" stroke="#263238" stroke-linecap="round" stroke-linejoin="round"/>
<path d="M241.599 151.622C241.599 151.622 239.815 151.622 239.544 152.312C239.273 153.001 239.679 157.121 240.093 157.546C240.508 157.971 241.735 157.683 241.87 156.031C242.006 154.38 241.982 152.28 241.599 151.622Z" fill="white" stroke="#263238" stroke-linecap="round" stroke-linejoin="round"/>
<path d="M243.472 150.925C243.472 150.925 241.465 150.925 241.154 151.727C240.843 152.528 241.313 157.17 241.775 157.634C242.237 158.099 243.624 157.787 243.783 155.927C243.943 154.067 243.935 151.703 243.472 150.925Z" fill="white" stroke="#263238" stroke-linecap="round" stroke-linejoin="round"/>
<path d="M245.297 150.941C245.297 150.941 243.289 150.941 242.978 151.743C242.667 152.544 243.13 157.178 243.592 157.643C244.054 158.108 245.448 157.803 245.6 155.935C245.751 154.067 245.759 151.719 245.297 150.941Z" fill="white" stroke="#263238" stroke-linecap="round" stroke-linejoin="round"/>
<path d="M250.364 165.106C250.364 165.106 251.161 161.098 251.297 158.885C251.432 156.673 248.978 154.075 248.356 153.274C247.735 152.472 247.743 149.707 246.659 149.707C245.576 149.707 245.273 150.949 245.273 150.949C245.273 150.949 244.651 152.969 245.735 154.051C246.535 154.918 247.257 155.855 247.894 156.849C247.894 156.849 244.651 163.069 244.651 164.777C244.651 166.484 247.743 168.504 247.743 168.504" fill="white"/>
<path d="M250.364 165.106C250.364 165.106 251.161 161.098 251.297 158.885C251.432 156.673 248.978 154.075 248.356 153.274C247.735 152.472 247.743 149.707 246.659 149.707C245.576 149.707 245.273 150.949 245.273 150.949C245.273 150.949 244.651 152.969 245.735 154.051C246.535 154.918 247.257 155.855 247.894 156.849C247.894 156.849 244.651 163.069 244.651 164.777C244.651 166.484 247.743 168.504 247.743 168.504" stroke="#263238" stroke-linecap="round" stroke-linejoin="round"/>
<path d="M250.851 168.135L249.99 175.598L270.348 182.292L270.157 171.101L250.851 168.135Z" fill="#DE834D" stroke="#263238" stroke-linecap="round" stroke-linejoin="round"/>
<path d="M284.426 132.921C284.426 132.921 273.088 136.336 272.323 139.903C271.558 143.47 269.207 154.332 269.207 154.332C269.207 154.332 266.411 161.731 266.666 165.554C266.921 169.378 269.207 177.041 267.933 182.14C266.658 187.238 262.355 202.557 261.343 207.663C260.331 212.769 259.821 215.823 259.821 215.823L263.877 216.625L269.454 217.386C269.454 217.386 271.741 202.076 273.518 188.809C275.295 175.542 270.729 166.364 275.04 157.675C279.35 148.985 289.748 140.328 288.991 136.753C288.235 133.178 284.426 132.921 284.426 132.921Z" fill="#DE834D" stroke="#263238" stroke-linecap="round" stroke-linejoin="round"/>
<path d="M263.91 206.661C263.91 206.661 262.388 225.29 265.432 239.07C267.13 246.954 269.333 254.719 272.029 262.316C272.029 262.316 275.575 284.761 278.116 292.681C280.429 299.663 281.376 307.029 280.905 314.373C280.395 320.489 276.085 328.401 274.053 329.932C272.021 331.463 267.965 335.038 273.041 336.345C278.116 337.651 284.666 334.685 287.749 334.557C293.837 334.301 294.602 330.22 294.602 326.397C294.602 322.573 291.048 309.563 292.068 302.918C293.088 296.272 293.335 274.34 292.315 268.449C291.295 262.557 290.793 257.226 290.793 257.226L290.036 209.506L264.922 205.939L263.91 206.661Z" fill="#263238" stroke="#263238" stroke-linecap="round" stroke-linejoin="round"/>
<path d="M291.878 306.862C286.021 309.411 282.739 308.946 280.93 307.896C281.06 310.045 281.041 312.202 280.874 314.349C280.364 320.465 276.054 328.377 274.022 329.908C271.99 331.439 267.934 335.014 273.01 336.321C278.085 337.627 284.635 334.661 287.718 334.533C293.806 334.277 294.571 330.196 294.571 326.373C294.571 323.182 292.156 313.78 291.878 306.862Z" fill="white" stroke="#263238" stroke-linecap="round" stroke-linejoin="round"/>
<path d="M294.546 325.739C294.542 325.7 294.542 325.659 294.546 325.619C294.546 325.403 294.507 325.17 294.475 324.93C294.479 324.876 294.479 324.823 294.475 324.77C294.443 324.534 294.411 324.286 294.379 324.024C294.379 324.024 294.379 323.968 294.379 323.936C294.339 323.663 294.299 323.367 294.252 323.07L294.204 322.79C294.156 322.517 294.108 322.228 294.06 321.932C294.06 321.772 294.005 321.611 293.981 321.451V321.347C293.63 321.707 293.256 322.084 292.857 322.509C288.802 326.846 283.216 331.695 277.384 331.695C274.603 331.695 273.902 330.894 273.926 330.036C271.854 331.639 268.133 335.046 273.073 336.289C278.149 337.563 284.698 334.629 287.782 334.501C293.869 334.245 294.634 330.164 294.634 326.341C294.592 326.159 294.562 325.959 294.546 325.739Z" fill="#DE834D" stroke="#263238" stroke-linecap="round" stroke-linejoin="round"/>
<path d="M289.494 330.934C284.673 334.758 279.606 335.271 275.295 335.271C271.957 335.271 271.056 333.9 270.817 333.275C270.236 334.493 270.53 335.679 273.008 336.289C278.084 337.563 284.633 334.629 287.717 334.501C293.454 334.261 294.458 330.629 294.561 327.006C293.342 327.92 291.645 329.219 289.494 330.934Z" fill="white" stroke="#263238" stroke-linecap="round" stroke-linejoin="round"/>
<path d="M280.108 234.99C280.108 234.99 282.65 267.391 284.674 276.072C286.697 284.753 291.048 314.854 291.048 318.942C291.048 323.03 288.259 328.89 286.737 331.439C285.215 333.988 281.16 334.501 281.16 336.802C281.16 339.102 289.271 339.094 290.793 339.351C292.315 339.607 302.745 336.802 302.968 335.527C303.191 334.253 303.223 328.89 303.223 328.89C303.364 327.448 303.364 325.995 303.223 324.553C302.968 322.766 299.924 317.411 299.924 317.411C299.924 317.411 302.721 292.401 303.478 288.321C304.235 284.24 303.988 275.815 303.733 271.984C303.478 268.152 301.167 260.497 301.167 260.497L306.235 219.927L305.733 206.909C305.733 206.909 298.625 207.711 290.761 207.711H277.319L277.829 217.402" fill="#263238"/>
<path d="M280.108 234.99C280.108 234.99 282.65 267.391 284.674 276.072C286.697 284.753 291.048 314.854 291.048 318.942C291.048 323.03 288.259 328.89 286.737 331.439C285.215 333.988 281.16 334.501 281.16 336.802C281.16 339.102 289.271 339.094 290.793 339.351C292.315 339.607 302.745 336.802 302.968 335.527C303.191 334.253 303.223 328.89 303.223 328.89C303.364 327.448 303.364 325.995 303.223 324.553C302.968 322.766 299.924 317.411 299.924 317.411C299.924 317.411 302.721 292.401 303.478 288.321C304.235 284.24 303.988 275.815 303.733 271.984C303.478 268.152 301.167 260.497 301.167 260.497L306.235 219.927L305.733 206.909C305.733 206.909 298.625 207.711 290.761 207.711H277.319L277.829 217.402" stroke="#263238" stroke-linecap="round" stroke-linejoin="round"/>
<path d="M302.951 335.527C303.206 334.245 303.206 328.89 303.206 328.89C303.347 327.448 303.347 325.995 303.206 324.553C302.951 322.766 299.908 317.411 299.908 317.411C299.908 317.411 300.33 313.684 300.88 308.874C299.098 309.568 297.186 309.856 295.281 309.717C293.375 309.579 291.524 309.017 289.86 308.072C290.562 313.371 291.032 317.555 291.032 318.902C291.032 322.982 288.243 328.85 286.721 331.399C285.199 333.948 281.144 334.461 281.144 336.762C281.144 339.062 289.255 339.054 290.777 339.311C292.298 339.567 302.689 336.802 302.951 335.527Z" fill="white" stroke="#263238" stroke-linecap="round" stroke-linejoin="round"/>
<path d="M302.952 335.527C303.207 334.245 303.207 328.89 303.207 328.89C303.348 327.448 303.348 325.995 303.207 324.553C303.063 323.519 301.988 321.299 301.103 319.607C301.04 319.727 300.984 319.832 300.928 319.96C299.406 323.022 292.889 330.99 289.845 332.786C286.801 334.581 285.965 332.473 285.965 332.473H285.885C284.068 334.188 281.319 334.878 281.144 336.81C280.809 340.449 290.705 340.208 292.179 339.736C293.654 339.263 302.689 336.802 302.952 335.527Z" fill="#DE834D" stroke="#263238" stroke-linecap="round" stroke-linejoin="round"/>
<path d="M302.952 335.527C303.128 333.855 303.211 332.174 303.199 330.493C298.193 334.447 292.129 336.808 285.781 337.275C282.857 337.459 281.662 336.152 281.455 335.888C281.283 336.165 281.177 336.477 281.144 336.802C280.809 340.441 290.705 340.2 292.179 339.728C293.654 339.255 302.689 336.802 302.952 335.527Z" fill="white" stroke="#263238" stroke-linecap="round" stroke-linejoin="round"/>
<path d="M282.905 134.196C282.905 134.196 273.009 153.586 270.73 158.949C268.451 164.312 269.455 172.977 269.455 176.039C269.455 179.102 263.878 206.661 263.878 206.661C263.878 206.661 268.953 212.024 282.395 211.511C295.837 210.998 303.956 207.687 303.956 207.687C303.956 207.687 300.912 182.42 300.912 177.066C300.912 171.711 307.502 148.737 306.745 142.596C305.988 136.456 296.849 136.985 294.57 136.472C292.291 135.959 282.905 134.196 282.905 134.196Z" fill="white" stroke="#263238" stroke-linecap="round" stroke-linejoin="round"/>
<path d="M271.551 97.9951C271.551 97.9951 268.691 107.783 269.727 108.993C270.571 110.261 271.251 111.632 271.751 113.073C271.751 113.073 268.715 118.989 269.52 119.807C270.307 120.437 271.2 120.92 272.157 121.234C272.157 121.234 273.982 130.051 275.607 130.42C277.232 130.789 286.762 128.176 286.762 128.176C286.762 128.176 292.443 123.069 290.212 113.891C287.981 104.713 279.057 98.1794 277.463 97.3618C275.87 96.5442 271.551 97.9951 271.551 97.9951Z" fill="white" stroke="#263238" stroke-linecap="round" stroke-linejoin="round"/>
<path d="M276.658 112.68V114.925C276.658 114.925 279.176 115.085 280.395 114.268" stroke="#263238" stroke-linecap="round" stroke-linejoin="round"/>
<path d="M275.773 111.646C276.454 111.284 277.214 111.102 277.984 111.118C278.753 111.133 279.506 111.345 280.172 111.734" stroke="#263238" stroke-linecap="round" stroke-linejoin="round"/>
<path d="M273.527 111.646C273.527 111.646 274.427 109.755 277.925 109.755C281.423 109.755 283.407 110.837 283.67 111.47C283.752 111.642 283.786 111.833 283.771 112.023C283.756 112.213 283.691 112.396 283.582 112.552C283.582 112.552 283.582 116.256 282.594 117.25C281.606 118.244 278.021 119.238 276.22 118.42C274.42 117.602 273.439 114.083 273.439 113.274C273.439 112.464 273.527 111.646 273.527 111.646Z" stroke="#263238" stroke-linecap="round" stroke-linejoin="round"/>
<path d="M283.67 111.47H285.112" stroke="#263238" stroke-linecap="round" stroke-linejoin="round"/>
<path d="M273.526 111.646C273.526 111.646 272.004 110.38 271.375 111.919" stroke="#263238" stroke-linecap="round" stroke-linejoin="round"/>
<path d="M270.746 111.646C269.838 111.411 268.903 111.29 267.965 111.286C266.435 111.286 265.989 111.919 266.077 112.191C266.375 113.037 266.557 113.918 266.619 114.813C266.619 115.799 266.706 117.338 267.607 117.787C268.23 118.08 268.898 118.264 269.583 118.332" stroke="#263238" stroke-linecap="round" stroke-linejoin="round"/>
<path d="M291.271 135.727C291.271 135.727 284.427 153.073 282.65 162.773C280.873 172.472 281.63 222.741 281.63 222.741C286.218 224.922 291.284 225.888 296.346 225.547C304.968 225.034 313.876 219.422 313.876 219.422C313.876 219.422 311.844 204.625 308.553 194.156C305.262 183.687 303.988 178.853 303.988 178.853C303.988 178.853 310.577 144.913 310.075 141.338C309.573 137.763 291.271 135.727 291.271 135.727Z" fill="#DE834D" stroke="#263238" stroke-linecap="round" stroke-linejoin="round"/>
<path d="M278.251 88.3997C278.251 88.3997 268.315 91.2614 268.315 92.8887C268.315 94.516 267.909 96.7685 274.602 101.458C281.295 106.147 286.163 110.436 286.554 116.151C286.944 121.867 281.279 136.993 280.06 141.859C278.841 146.725 279.454 153.883 283.303 154.917C287.151 155.951 285.94 155.326 285.534 153.081C285.127 150.837 287.358 141.45 294.051 138.396C300.744 135.342 308.003 130.428 309.469 121.25C310.999 111.678 310.385 97.8266 300.545 90.2354C290.705 82.6442 278.251 88.3997 278.251 88.3997Z" fill="#263238" stroke="#263238" stroke-linecap="round" stroke-linejoin="round"/>
<path d="M296.578 154.604L294.036 178.083L292.514 178.596V179.871L290.992 180.633L290.235 181.659L254.978 178.34C254.978 178.34 246.859 177.322 245.337 177.322C243.815 177.322 237.982 176.52 237.982 176.52C237.982 176.52 238.779 178.821 240.014 179.069C241.249 179.318 247.878 181.627 247.878 181.627C247.878 181.627 252.189 183.919 254.978 183.919C257.767 183.919 262.077 184.176 262.077 184.176C262.077 184.176 280.594 189.282 286.427 190.3C292.259 191.318 297.08 193.619 299.111 192.849C300.359 192.373 301.484 191.622 302.405 190.651C303.327 189.68 304.02 188.514 304.434 187.238C305.231 184.432 308.498 167.077 308.498 167.077C308.498 167.077 312.553 149.442 312.553 145.137C312.553 140.833 306.721 138.5 301.398 141.306" fill="#DE834D"/>
<path d="M296.578 154.604L294.036 178.083L292.514 178.596V179.871L290.992 180.633L290.235 181.659L254.978 178.34C254.978 178.34 246.859 177.322 245.337 177.322C243.815 177.322 237.982 176.52 237.982 176.52C237.982 176.52 238.779 178.821 240.014 179.069C241.249 179.318 247.878 181.627 247.878 181.627C247.878 181.627 252.189 183.919 254.978 183.919C257.767 183.919 262.077 184.176 262.077 184.176C262.077 184.176 280.594 189.282 286.427 190.3C292.259 191.318 297.08 193.619 299.111 192.849C300.359 192.373 301.484 191.622 302.405 190.651C303.327 189.68 304.02 188.514 304.434 187.238C305.231 184.432 308.498 167.077 308.498 167.077C308.498 167.077 312.553 149.442 312.553 145.137C312.553 140.833 306.721 138.5 301.398 141.306" stroke="#263238" stroke-linecap="round" stroke-linejoin="round"/>
<path d="M291.072 191.39L288.371 181.474L255.002 178.34C255.002 178.34 246.883 177.322 245.361 177.322C243.839 177.322 238.007 176.52 238.007 176.52C238.007 176.52 238.804 178.821 240.039 179.07C241.274 179.318 247.903 181.627 247.903 181.627C247.903 181.627 252.213 183.919 255.002 183.919C257.791 183.919 262.102 184.176 262.102 184.176C262.102 184.176 280.619 189.282 286.451 190.3C288.085 190.621 289.638 191.005 291.072 191.39Z" fill="white" stroke="#263238" stroke-linecap="round" stroke-linejoin="round"/>
<path d="M294.793 188.392L295.582 189.563" stroke="#263238" stroke-linecap="round" stroke-linejoin="round"/>
<path d="M290.26 181.659L293.829 186.957" stroke="#263238" stroke-linecap="round" stroke-linejoin="round"/>
<path d="M292.538 179.871L297.614 183.446" stroke="#263238" stroke-linecap="round" stroke-linejoin="round"/>
<path d="M239.552 176.929C239.662 177.3 239.876 177.632 240.169 177.883C240.461 178.135 240.82 178.296 241.201 178.348C242.492 178.46 246.245 180.585 246.595 180.585" stroke="#263238" stroke-linecap="round" stroke-linejoin="round"/>
<path d="M243.783 177.282C244.426 177.867 245.183 178.309 246.006 178.581C247.524 179.09 249.013 179.682 250.468 180.352" stroke="#263238" stroke-linecap="round" stroke-linejoin="round"/>
<path d="M261.615 179.406C261.615 179.406 256.372 177.627 255.941 177.747C254.705 177.887 253.455 177.849 252.228 177.635C250.468 177.402 249.408 179.406 250.818 179.999C251.792 180.365 252.839 180.487 253.87 180.352C254.34 180.352 255.742 180.825 256.101 180.825" fill="white"/>
<path d="M261.615 179.406C261.615 179.406 256.372 177.627 255.941 177.747C254.705 177.887 253.455 177.849 252.228 177.635C250.468 177.402 249.408 179.406 250.818 179.999C251.792 180.365 252.839 180.487 253.87 180.352C254.34 180.352 255.742 180.825 256.101 180.825" stroke="#263238" stroke-linecap="round" stroke-linejoin="round"/>
<path d="M220.429 173.939L269.853 179.534L269.694 177.819L220.118 172.536L220.429 173.939Z" fill="white" stroke="#263238" stroke-linecap="round" stroke-linejoin="round"/>
<path d="M220.119 172.536L210.382 146.741L238.189 149.073L247.305 175.647L220.119 172.536Z" fill="white" stroke="#263238" stroke-linecap="round" stroke-linejoin="round"/>
<path d="M247.305 175.647V176.977L269.854 179.534L269.695 177.819L247.281 175.43L247.305 175.647Z" fill="#263238" stroke="#263238" stroke-linecap="round" stroke-linejoin="round"/>
</svg>
